<svg width="640" height="480" xmlns="http://www.w3.org/2000/svg">
 <!-- Created with SVG-edit - http://svg-edit.googlecode.com/ -->
 <g>
  <title>Layer 1</title>
  <text stroke="#7f7f7f" transform="matrix(0.746835 0 0 0.692623 35.6962 -6.14754)" xml:space="preserve" text-anchor="middle" font-family="Cursive" font-size="350" id="svg_11" y="488.72189" x="266.86441" stroke-linecap="null" stroke-linejoin="null" stroke-dasharray="null" stroke-width="0" fill="#4c4c4c">1</text>
  <path stroke="#7f7f7f" id="svg_17" d="m11.545,240.99452l0,0c0,-123.437 100.06596,-223.49952 223.49954,-223.49952l0,0c59.27831,0 116.12538,23.54835 158.03874,65.46128c41.91632,41.91298 65.46466,98.75987 65.46466,158.03824l0,0c0,123.43355 -100.06628,223.49959 -223.5034,223.49959l0,0c-123.43358,0 -223.49954,-100.06604 -223.49954,-223.49959zm111.75319,0l0,0c0,61.71684 50.02948,111.74986 111.74635,111.74986c61.72011,0 111.74986,-50.03302 111.74986,-111.74986c0,-61.72017 -50.02975,-111.74979 -111.74986,-111.74979l0,0c-61.71687,0 -111.74635,50.02962 -111.74635,111.74979z" stroke-linecap="null" stroke-linejoin="null" stroke-dasharray="null" stroke-width="5" fill="#7f7f7f"/>
 </g>
</svg>