<svg xmlns="http://www.w3.org/2000/svg" xmlns:xlink="http://www.w3.org/1999/xlink" version="1.1" x="0px" y="0px" width="404.973px" height="384.051px" viewBox="0 0 404.973 384.051" enable-background="new 0 0 404.973 384.051" xml:space="preserve"><g><path fill="none" d="M202.311 17.933l-0.898 0.018c-41.656 0.801-76.042 19.815-101.562 47.4 c-27.44 29.674-44.683 69.154-49.842 106.787c3.144-0.388 6.65-0.563 10.566-0.519l140.838 1.819l1.011 0.018l141.853-1.837 c3.099-0.036 5.9 0.1 8.5 0.308c-3.241-40.139-19.864-78.758-46.52-107.332C280.218 36.7 244.5 18.4 202.3 17.933z"/><path fill="#333333" d="M388.533 261.909c-5.847-22.708-8.209-42.312-11.182-72.188c-0.665-4.477-2.488-8.259-5.783-11.187 c-1.895-46.903-20.619-92.635-51.774-126.028C290.437 21 250.1 0.5 202.4 0h-0.181l-0.763 0 c-47.408 0.81-86.37 22.207-115.131 53.305c-32.851 35.531-52.321 83.85-55.706 128.254c-1.635 2.356-2.627 5.093-3.071 8.1 c-2.978 29.877-5.348 49.48-11.185 72.188c-3.732 13.693-16.951 17.826-16.296 31.881c2.007 11.5 18.4 9.7 29.4 8.3 c17.889-0.484 35.72-4.45 56.857-9.753c30.676-7.679 68.14-17.062 122.61-18.628h0.149c54.458 1.6 92.1 10.9 123 18.6 c7.267 1.8 21.6 5.9 43.3 9.753c11.062 1.3 27.4 3.2 29.42-8.337C406.637 280.6 392.3 275.6 388.5 261.909z M344.276 171.622l-141.853 1.837l-1.011-0.018l-140.838-1.819c-3.916-0.045-7.422 0.131-10.566 0.5 c5.16-37.633 22.402-77.113 49.842-106.787c25.52-27.588 59.906-46.603 101.562-47.404l0.898-0.018 c42.173 0.4 77.9 18.7 104 46.665c26.655 28.6 43.3 67.2 46.5 107.3 C350.212 171.7 347.4 171.6 344.3 171.622z"/><path fill="#333333" d="M208.993 277.694c-53.856 1.549-90.992 10.854-121.408 18.479c-21.666 5.428-39.963 10.009-58.599 10.4 l0.462-4.46c-1.621 15.559-3.241 31.117-4.867 46.683c-0.763 13 2.4 22.9 16.5 25.7 c53.025 5.9 106.8 9.4 160.2 9.525h0.129h1.011h1.141c53.402-0.14 107.134-3.641 160.164-9.525 c14.09-2.857 17.296-12.743 16.532-25.716c-1.5-14.423-2.998-28.838-4.508-43.252c-14.091-1.715-28.559-5.312-44.929-9.394 C300.208 288.5 262.8 279.2 209 277.694z M243.361 310.421c0 3.078-2.568 5.594-5.711 5.594h-70.314 c-3.143 0-5.716-2.516-5.716-5.594v-8.601c0-3.088 2.573-5.604 5.716-5.604h70.314c3.143 0 5.7 2.5 5.7 5.604V310.421z"/><path fill="#FFFFFF" d="M375.752 305.558l-0.358-3.431C375.519 303.3 375.6 304.4 375.8 305.558L375.752 305.558z"/><path fill="#FFFFFF" d="M209.065 273.746h-0.149c-54.471 1.565-91.934 10.949-122.61 18.6 c-21.137 5.303-38.968 9.269-56.857 9.753l-0.462 4.46c18.636-0.405 36.933-4.986 58.599-10.414 c30.417-7.625 67.552-16.93 121.408-18.479c53.839 1.5 91.2 10.9 121.8 18.47c16.37 4.1 30.8 7.7 44.9 9.4 c-0.116-1.145-0.233-2.287-0.358-3.431c-21.698-3.816-36.03-7.941-43.297-9.753C301.213 284.7 263.5 275.3 209.1 273.746z"/><path fill="#FFFFFF" d="M237.65 296.217h-70.314c-3.143 0-5.716 2.516-5.716 5.604v8.601c0 3.1 2.6 5.6 5.7 5.594h70.314 c3.143 0 5.711-2.516 5.711-5.594v-8.601C243.361 298.7 240.8 296.2 237.7 296.217z"/></g></svg>