<svg xmlns="http://www.w3.org/2000/svg" xmlns:xlink="http://www.w3.org/1999/xlink" version="1.1" x="0px" y="0px" width="373.72px" height="314.121px" viewBox="0 0 373.72 314.121" enable-background="new 0 0 373.72 314.121" xml:space="preserve"><path fill="#333333" d="M318.776 57.238c0.011-0.135 0.047-0.262 0.047-0.397c0-4.785-3.884-8.669-8.67-8.669h-32.17 c-4.559 0-8.24 3.524-8.592 7.982h-18.038V32.98c0-25.574-20.733-32.98-46.3-32.98h-33.084c-25.562 0-46.3 7.406-46.3 32.98v23.173 h-18.93c-0.357-4.458-4.05-7.982-8.592-7.982H65.972c-4.787 0-8.664 3.884-8.664 8.669c0 0 0 0 0 0 C24.944 61.4 0 89.1 0 122.755v124.772c0 36.8 29.8 66.6 66.6 66.594h240.522c36.776 0 66.594-29.817 66.594-66.594 V122.755C373.72 90 350 62.8 318.8 57.238z M96.769 278.657h-33.26V92.942h33.26V278.657z M228.696 56.153h-80.365 V32.98c0-4.112 0-10.328 23.638-10.328h33.084c23.643 0 23.6 6.2 23.6 10.328V56.153z M310.211 278.657h-33.26V92.942h33.26 V278.657z"/></svg>