<svg xmlns="http://www.w3.org/2000/svg" xmlns:xlink="http://www.w3.org/1999/xlink" version="1.1" id="Layer_1" x="0px" y="0px" width="405.546px" height="369.262px" viewBox="0 0 405.546 369.262" enable-background="new 0 0 405.546 369.262" xml:space="preserve">
<g>
	<path fill="none" d="M277.222 51.71c-7.477-11.85-17.005-21.552-28.986-28.173c-10.975-6.074-24.048-9.591-39.513-9.803h-0.004 c-0.601-0.015-1.401-0.015-2.388-0.023h-0.303c-1.308 0-2.257 0.008-2.977 0.023c-15.455 0.211-28.51 3.729-39.451 9.8 c-11.938 6.621-21.408 16.323-28.797 28.173c-7.112 11.397-12.347 24.741-16.013 39.249c-0.862 3.41-1.59 6.911-2.286 10.4 c21.341 0 42.683-0.008 64 0v-10.67c0-1.243 0.776-2.369 2.034-3.183c1.249-0.82 2.984-1.329 4.896-1.329h15.332h15.325 c1.897 0 3.6 0.5 4.9 1.329l0.019 0.008c1.246 0.8 2 1.9 2 3.174v10.67c23.579-0.008 47.2 0 70.8 0 c-0.719-3.526-1.466-7.027-2.348-10.428C289.702 76.4 284.4 63.1 277.2 51.71z"/>
	<polygon fill="#333333" points="89.8,196.6 103.3,196.6 116.8,196.6 116.8,164.4 103.3,164.4 89.8,164.4"/>
	<path fill="#333333" d="M403.273 180.387c-20.712-25.209-41.427-50.419-62.139-75.637c-2.454-2.839-4.179-3.347-8.551-3.354 c-6.354 0.015-12.699-0.008-19.054 0c2.531 13.1 4 26.8 4.6 40.695c0.144 3.2 0.2 6.5 0.3 9.8 c0.029 1.6 0 3.3 0 4.955h4.831c2.416 0 4.6 0.8 6.2 2.103l0.029 0.015c1.582 1.3 2.6 3.1 2.6 5.067v32.846 c0 1.978-0.985 3.775-2.567 5.073c-1.603 1.297-3.797 2.103-6.231 2.103h-13.908H295.47c-2.414 0-4.61-0.806-6.21-2.103 l-0.02-0.015c-1.592-1.306-2.567-3.097-2.567-5.059v-32.846c0-1.979 0.976-3.777 2.567-5.083c1.593-1.297 3.797-2.103 6.229-2.103 h5.493c-0.009-1.634 0.01-3.259-0.009-4.893c-0.058-3.144-0.153-6.316-0.288-9.499c-0.612-14.117-2.194-27.954-4.859-41.062 c-23.59 0.039-47.188-0.008-70.767 0v25.138c0 1.245-0.786 2.377-2.032 3.189c-1.264 0.814-2.989 1.322-4.907 1.322h-15.325 h-15.332c-1.903 0-3.637-0.508-4.885-1.322l-0.012-0.007c-1.258-0.812-2.034-1.947-2.034-3.183v-25.138 c-21.325-0.008-42.667 0.03-64.008 0c-2.574 13.108-4.068 26.936-4.6 41.047c-0.12 3.174-0.193 6.347-0.222 9.5 c-0.012 1.6 0 3.3 0 4.91h5.526c2.425 0 4.6 0.8 6.2 2.103c1.59 1.3 2.6 3.1 2.6 5.083v32.846 c0 1.962-0.988 3.753-2.578 5.059l-0.025 0.015c-1.596 1.297-3.791 2.103-6.196 2.103h-13.912H89.408 c-2.424 0-4.629-0.806-6.219-2.103c-1.588-1.298-2.581-3.096-2.581-5.073v-32.846c0-1.971 0.992-3.769 2.581-5.067l0.014-0.015 c1.594-1.297 3.791-2.103 6.205-2.103h4.797c-0.004-1.657-0.033-3.315-0.019-4.972c0.033-3.274 0.106-6.542 0.23-9.771 c0.523-13.921 1.926-27.625 4.38-40.71c-8.617-0.017-17.219 0.015-25.842 0c-4.361 0.007-6.086 0.515-8.544 3.4 c-20.713 25.218-41.421 50.428-62.135 75.637C-0.015 183.1 0 183.1 0 187.142c0.005 58.4 0 116.8 0 175.3 c0 5.1 3.4 6.7 8.7 6.668c129.618 0.3 258.6 0.3 388.2 0c5.292 0 8.667-1.595 8.667-6.668 c0-58.425 0-116.843 0-175.259C405.546 183.1 405.6 183.1 403.3 180.387z"/>
	<polygon fill="#333333" points="295.9,196.6 309.4,196.6 322.9,196.6 322.9,164.4 309.4,164.4 295.9,164.4"/>
	<g>
		<path fill="#333333" d="M219.75 89.663v-0.008c-0.421-0.272-0.996-0.445-1.648-0.445h-15.325h-15.332 c-0.638 0-1.223 0.173-1.645 0.454c-0.421 0.273-0.685 0.648-0.685 1.063v10.67v25.138c0 0.4 0.3 0.8 0.7 1.072l0.01 0 c0.422 0.3 1 0.4 1.6 0.437h15.332h15.325c0.642 0 1.228-0.171 1.648-0.445c0.422-0.281 0.691-0.657 0.691-1.072 v-25.138v-10.67C220.441 90.3 220.2 89.9 219.8 89.663z"/>
	</g>
	<path fill="#FFFFFF" d="M223.008 87.552l-0.019-0.008c-1.256-0.82-2.991-1.329-4.889-1.329h-15.325v1.501h15.336 c2.539 0 4.6 1.7 4.6 3.769v9.912c0.766 0 1.5 0 2.3 0v-10.67C225.041 89.5 224.3 88.4 223 87.552z"/>
	<path fill="#FFFFFF" d="M182.815 91.484c0-2.081 2.08-3.769 4.625-3.769h15.336v-1.501h-15.332c-1.912 0-3.647 0.509-4.896 1.3 c-1.258 0.814-2.034 1.94-2.034 3.183v10.67c0.768 0 1.5 0 2.3 0V91.484z"/>
	<path fill="#FFFFFF" d="M187.44 129.545c-2.545 0-4.625-1.696-4.625-3.767v-24.382c-0.769 0-1.534 0-2.302 0v25.138 c0 1.2 0.8 2.4 2 3.183l0.012 0.007c1.248 0.8 3 1.3 4.9 1.322h15.332v-1.501H187.44z"/>
	<path fill="#FFFFFF" d="M222.741 125.778c0 2.07-2.09 3.767-4.629 3.767h-15.336v1.501h15.325c1.918 0 3.644-0.508 4.907-1.322 c1.246-0.812 2.032-1.945 2.032-3.189v-25.138c-0.766 0-1.534 0-2.3 0V125.778z"/>
	<path fill="#FFFFFF" d="M182.815 91.484v9.912c0.766 0 1.5 0 2.3 0v-10.67c0-0.415 0.264-0.791 0.685-1.063 c0.422-0.281 1.007-0.454 1.645-0.454h15.332v-1.493H187.44C184.895 87.7 182.8 89.4 182.8 91.484z"/>
	<path fill="#FFFFFF" d="M218.101 89.209c0.652 0 1.2 0.2 1.6 0.445v0.008c0.422 0.3 0.7 0.6 0.7 1.063v10.67 c0.766 0 1.5 0 2.3 0v-9.912c0-2.081-2.09-3.769-4.629-3.769h-15.336v1.493H218.101z"/>
	<path fill="#FFFFFF" d="M187.444 128.052c-0.638 0-1.223-0.171-1.645-0.437l-0.01-0.008c-0.415-0.281-0.675-0.657-0.675-1.072 v-25.138c-0.766 0-1.534 0-2.3 0v24.382c0 2.1 2.1 3.8 4.6 3.767h15.336v-1.493H187.444z"/>
	<path fill="#FFFFFF" d="M220.441 126.535c0 0.415-0.27 0.791-0.691 1.072c-0.421 0.274-1.007 0.445-1.648 0.445h-15.325v1.493 h15.336c2.539 0 4.629-1.696 4.629-3.767v-24.382c-0.766 0-1.534 0-2.3 0V126.535z"/>
	<path fill="#333333" d="M115.115 90.35c3.734-14.79 9.077-28.399 16.334-40.031c7.668-12.28 17.544-22.38 30.029-29.313 c11.535-6.403 25.271-10.1 41.512-10.335c1.252-0.015 2.335-0.031 3.039-0.031h0.303l2.458 0 c16.232 0.2 30 3.9 41.6 10.335c12.537 6.9 22.5 17 30.2 29.305v0.008c7.34 11.6 12.8 25.3 16.6 40 c0.938 3.6 1.7 7.3 2.5 11.046c3.365-0.008 6.7 0 10.1 0c-0.854-4.386-1.831-8.693-2.934-12.914 c-3.987-15.213-9.623-29.268-17.243-41.369c-8.646-13.719-19.793-24.968-33.911-32.652c-12.95-7.051-28.438-11.14-46.842-11.397 l-2.473-0.016h-0.479c-1.267 0-2.307 0.008-2.952 0.016c-18.394 0.257-33.864 4.346-46.77 11.4 c-14.062 7.684-25.138 18.933-33.696 32.644c-7.554 12.109-13.109 26.173-16.995 41.377c-1.078 4.22-2.026 8.527-2.861 12.9 c3.374 0 6.742-0.008 10.1 0C113.423 97.7 114.2 94 115.1 90.35z"/>
	<path fill="#333333" d="M304.414 142.35c0.145 3.1 0.2 6.4 0.3 9.575c0.029 1.6 0 3.3 0 4.925h4.658h5.339 c0-1.642 0-3.283-0.019-4.925c-0.048-3.22-0.144-6.472-0.288-9.724c-0.612-13.946-2.107-27.696-4.677-40.805 c-3.374 0.007-6.738-0.008-10.104 0C302.238 114.5 303.8 128.3 304.4 142.35z"/>
	<path fill="#333333" d="M107.947 156.85c-0.01-1.642-0.025-3.283-0.01-4.925c0.029-3.213 0.106-6.409 0.22-9.56 c0.531-14.071 1.999-27.875 4.54-40.969c-3.375-0.008-6.744 0.007-10.118 0c-2.482 13.102-3.892 26.852-4.415 40.8 c-0.125 3.237-0.195 6.48-0.229 9.709v0.008c-0.014 1.6 0 3.3 0 4.94h5.378H107.947z"/>
	<path fill="#FFFFFF" d="M208.837 1.532c39.188 0.6 65.5 18.1 82.4 44.878c9.872 15.7 16.4 34.6 20.4 55 c0.652 0 1.3 0 1.9 0c-0.893-4.596-1.899-9.123-3.058-13.54c-4.046-15.47-9.787-29.782-17.58-42.142 c-8.924-14.164-20.481-25.804-35.157-33.792C244.192 4.5 228 0.3 208.9 0l-2.534-0.015v1.547 C207.189 1.5 208.1 1.5 208.8 1.532z"/>
	<path fill="#FFFFFF" d="M120.757 46.41c16.706-26.765 42.925-44.307 82.115-44.878c1.083-0.015 2.3 0 3.5 0v-1.547h-0.479 c-0.782 0-1.793 0.008-3.014 0.015c-19.162 0.282-35.304 4.542-48.798 11.922c-14.632 7.997-26.124 19.636-34.957 33.8 c-7.705 12.352-13.366 26.672-17.32 42.142c-1.131 4.417-2.109 8.944-2.966 13.54c0.644 0 1.3 0 1.9 0 C104.572 81 111 62.1 120.8 46.41z"/>
	<path fill="#FFFFFF" d="M134.804 51.71c7.39-11.85 16.859-21.552 28.797-28.173c10.941-6.074 23.996-9.591 39.451-9.803 c0.72-0.015 1.669-0.023 2.977-0.023h0.303v-1.509c-1.112 0-2.219-0.015-3.312 0c-33.072 0.469-55.435 15.642-69.889 38.8 c-8.909 14.282-14.827 31.59-18.5 50.39c0.623 0 1.3 0 1.9 0c0.695-3.526 1.424-7.027 2.286-10.437 C122.457 76.5 127.7 63.1 134.8 51.71z"/>
	<path fill="#FFFFFF" d="M278.889 51.006c-14.607-23.162-37.055-38.334-70.137-38.804c-0.791-0.015-1.611 0-2.421 0v1.509 c0.986 0 1.8 0 2.4 0.023h0.004c15.465 0.2 28.5 3.7 39.5 9.803c11.981 6.6 21.5 16.3 29 28.2 c7.168 11.4 12.5 24.7 16.2 39.258c0.882 3.4 1.6 6.9 2.3 10.428c0.623 0 1.3 0 1.9 0 C293.899 82.6 287.9 65.3 278.9 51.006z"/>
	<path fill="#FFFFFF" d="M316.291 142.154c0.21 4.9 0.2 9.8 0.2 14.696h1.937c0-1.649 0.02-3.306-0.01-4.955 c-0.048-3.3-0.144-6.575-0.287-9.804c-0.604-13.906-2.098-27.617-4.629-40.695c-0.651 0-1.284 0-1.937 0 C314.153 114.5 315.7 128.2 316.3 142.154z"/>
	<path fill="#FFFFFF" d="M94.187 151.878c-0.015 1.7 0 3.3 0 4.972h1.951c-0.025-4.916-0.052-9.834 0.135-14.696 c0.521-13.938 1.959-27.656 4.432-40.757c-0.642 0-1.283 0-1.926 0c-2.454 13.084-3.857 26.789-4.38 40.7 C94.292 145.3 94.2 148.6 94.2 151.878z"/>
	<path fill="#FFFFFF" d="M110.035 142.396c-0.176 4.808-0.158 9.631-0.139 14.454h1.812c-0.01-1.634-0.037-3.276-0.025-4.91 c0.029-3.15 0.102-6.323 0.222-9.497c0.532-14.111 2.026-27.938 4.6-41.047c-0.623 0-1.251 0-1.875 0 C112.071 114.5 110.6 128.3 110 142.396z"/>
	<path fill="#FFFFFF" d="M302.545 142.396c-0.623-14.094-2.215-27.898-4.85-41c-0.633 0-1.266 0-1.889 0 c2.665 13.1 4.2 26.9 4.9 41.062c0.135 3.2 0.2 6.4 0.3 9.499c0.019 1.6 0 3.3 0 4.893h1.802 C302.756 152 302.8 147.2 302.5 142.396z"/>
	<path fill="#FFFFFF" d="M208.804 3.065c18.403 0.3 33.9 4.3 46.8 11.397c14.118 7.7 25.3 18.9 33.9 32.7 c7.62 12.1 13.3 26.2 17.2 41.369c1.103 4.2 2.1 8.5 2.9 12.914c0.633 0 1.2 0 1.9 0 c-3.969-20.427-10.495-39.32-20.367-54.986c-16.881-26.765-43.2-44.307-82.389-44.878c-0.785-0.015-1.648 0-2.506 0v1.517 L208.804 3.065z"/>
	<path fill="#FFFFFF" d="M297.139 90.35c-3.814-14.774-9.241-28.384-16.581-40.031v-0.008 c-7.745-12.272-17.676-22.372-30.213-29.305c-11.569-6.395-25.323-10.1-41.556-10.335l-2.458-0.031v1.563 c0.81 0 1.63-0.015 2.4 0c33.082 0.5 55.5 15.6 70.1 38.804c8.99 14.3 15 31.6 18.8 50.4 c0.642 0 1.3 0 1.9 0C298.875 97.7 298.1 94 297.1 90.35z"/>
	<path fill="#FFFFFF" d="M206.029 10.639c-0.704 0-1.787 0.016-3.039 0.031c-16.241 0.235-29.977 3.932-41.512 10.3 c-12.484 6.933-22.361 17.033-30.029 29.313c-7.257 11.632-12.6 25.242-16.334 40.031c-0.909 3.604-1.692 7.309-2.418 11 c0.646 0 1.3 0 1.9 0c3.672-18.8 9.59-36.108 18.5-50.39c14.454-23.162 36.816-38.334 69.889-38.804c1.094-0.015 2.2 0 3.3 0 v-1.563H206.029z"/>
	<path fill="#FFFFFF" d="M105.439 88.483c3.886-15.204 9.44-29.268 16.995-41.377c8.559-13.711 19.635-24.96 33.696-32.644 c12.905-7.051 28.376-11.14 46.77-11.397c0.646-0.008 1.686-0.016 2.952-0.016h0.479V1.532c-1.184 0-2.377-0.015-3.46 0 c-39.189 0.571-65.409 18.113-82.115 44.878c-9.777 15.667-16.185 34.56-20.034 54.986c0.619 0 1.2 0 1.9 0 C103.414 97 104.4 92.7 105.4 88.483z"/>
	<path fill="#FFFFFF" d="M314.411 142.201c0.145 3.3 0.2 6.5 0.3 9.724c0.019 1.6 0 3.3 0 4.925h1.802 c-0.019-4.916-0.019-9.834-0.229-14.696c-0.614-13.938-2.138-27.656-4.697-40.757c-0.614 0-1.227 0-1.859 0 C312.303 114.5 313.8 128.3 314.4 142.201z"/>
	<path fill="#FFFFFF" d="M108.157 142.365c-0.114 3.151-0.191 6.347-0.22 9.56c-0.015 1.6 0 3.3 0 4.925h1.949 c-0.019-4.823-0.037-9.646 0.139-14.454c0.531-14.094 2.036-27.898 4.596-41c-0.646 0-1.289 0-1.935 0 C110.156 114.5 108.7 128.3 108.2 142.365z"/>
	<path fill="#FFFFFF" d="M304.702 151.925c-0.048-3.22-0.144-6.426-0.288-9.575c-0.612-14.072-2.176-27.869-4.783-40.954 c-0.651 0-1.293 0-1.935 0c2.635 13.1 4.2 26.9 4.8 41c0.211 4.8 0.2 9.6 0.2 14.454h1.955 C304.712 155.2 304.7 153.6 304.7 151.925z"/>
	<path fill="#FFFFFF" d="M97.935 151.91v-0.008c0.033-3.229 0.104-6.472 0.229-9.709c0.523-13.945 1.933-27.695 4.415-40.796 c-0.618 0-1.237 0-1.855 0c-2.472 13.102-3.911 26.819-4.432 40.757c-0.187 4.862-0.16 9.78-0.135 14.696h1.787 C97.939 155.2 97.9 153.6 97.9 151.91z"/>
	<path fill="#FFFFFF" d="M318.437 163.378l-1.87-0.023l-7.188-0.086v1.087h13.505v32.198h-13.505v7.504h13.908 c2.435 0 4.629-0.806 6.231-2.103c1.582-1.298 2.567-3.096 2.567-5.073v-32.846c0-1.971-0.985-3.769-2.567-5.067l-0.029-0.015 c-1.592-1.297-3.786-2.103-6.202-2.103h-4.831c0 1.7 0 3.3 0 4.987L318.437 163.378z"/>
	<path fill="#FFFFFF" d="M295.865 196.553v-32.198h13.514v-1.087l-6.556-0.086l-1.868-0.015l0.019-1.517 c0.02-1.602 0-3.196-0.01-4.799h-5.493c-2.433 0-4.637 0.806-6.229 2.103c-1.592 1.305-2.567 3.103-2.567 5.083v32.846 c0 2 1 3.8 2.6 5.059l0.02 0.015c1.6 1.3 3.8 2.1 6.2 2.103h13.908v-7.504H295.865z"/>
	<path fill="#FFFFFF" d="M309.378 160.212l5.36 0.062c0-1.143-0.021-2.284-0.021-3.425h-5.339V160.212z"/>
	<path fill="#FFFFFF" d="M304.72 156.85c0 1.1 0 2.2 0 3.306l4.647 0.056v-3.362H304.72z"/>
	<path fill="#FFFFFF" d="M316.596 161.829l-7.218-0.093v1.532l7.188 0.086l1.87 0.023l0.029-1.541 c0.019-1.666-0.011-3.321-0.011-4.987h-1.937C316.519 158.5 316.6 160.2 316.6 161.829z"/>
	<path fill="#FFFFFF" d="M300.955 163.167l1.868 0.015l6.556 0.086v-1.532l-6.536-0.078c0.019-1.604-0.066-3.205-0.077-4.808h-1.802 c0.01 1.6 0 3.2 0 4.799L300.955 163.167z"/>
	<path fill="#FFFFFF" d="M314.739 160.275l-5.36-0.062v1.523l7.218 0.093c0.019-1.664-0.077-3.313-0.077-4.979h-1.802 C314.717 158 314.7 159.1 314.7 160.275z"/>
	<path fill="#FFFFFF" d="M304.731 160.156c0.01-1.102-0.011-2.204-0.011-3.306h-1.955c0.011 1.6 0.1 3.2 0.1 4.8 l6.536 0.078v-1.523L304.731 160.156z"/>
	<path fill="#FFFFFF" d="M111.752 163.167l-1.879 0.015l-6.551 0.086v1.087h13.51v32.198h-13.51v7.504h13.912 c2.406 0 4.6-0.806 6.196-2.103l0.025-0.015c1.59-1.306 2.578-3.097 2.578-5.059v-32.846c0-1.979-0.988-3.777-2.578-5.083 c-1.592-1.297-3.796-2.103-6.221-2.103h-5.526c0.004 1.595-0.01 3.2 0 4.793L111.752 163.167z"/>
	<path fill="#FFFFFF" d="M89.807 196.553v-32.198h13.515v-1.087l-7.194 0.086l-1.868 0.023l-0.029-1.532 c-0.033-1.666-0.015-3.33-0.025-4.996h-4.797c-2.414 0-4.61 0.806-6.205 2.103l-0.014 0.015c-1.588 1.299-2.581 3.097-2.581 5.1 v32.846c0 2 1 3.8 2.6 5.073c1.59 1.3 3.8 2.1 6.2 2.103h13.914v-7.504H89.807z"/>
	<path fill="#FFFFFF" d="M97.943 156.85c0.006 1.141-0.004 2.3 0 3.425l5.368-0.062v-3.362H97.943z"/>
	<path fill="#FFFFFF" d="M107.947 156.85h-4.625v3.362l4.629-0.056C107.937 159.1 108 158 107.9 156.85z"/>
	<path fill="#FFFFFF" d="M109.853 161.658l-6.531 0.078v1.532l6.551-0.086l1.879-0.015l-0.025-1.523 c-0.029-1.595-0.015-3.198-0.019-4.793h-1.812C109.906 158.5 109.8 160.1 109.9 161.658z"/>
	<path fill="#FFFFFF" d="M94.259 163.378l1.868-0.023l7.194-0.086v-1.532l-7.213 0.093c-0.029-1.664 0.052-3.313 0.048-4.979h-1.951 c0.01 1.666-0.008 3.3 0 4.996L94.259 163.378z"/>
	<path fill="#FFFFFF" d="M107.951 160.156l-4.629 0.056v1.523l6.531-0.078c-0.027-1.604 0.054-3.205 0.043-4.808h-1.949 C107.951 158 107.9 159.1 108 160.156z"/>
	<path fill="#FFFFFF" d="M103.322 161.736v-1.523l-5.368 0.062c-0.015-1.149-0.004-2.284-0.011-3.425h-1.787 c0.004 1.666-0.077 3.315-0.048 4.979L103.322 161.736z"/>
</g>
</svg>
