<svg xmlns="http://www.w3.org/2000/svg" xmlns:xlink="http://www.w3.org/1999/xlink" version="1.1" id="Layer_1" x="0px" y="0px" width="510.927px" height="252.806px" viewBox="0 0 510.927 252.806" enable-background="new 0 0 510.927 252.806" xml:space="preserve"><style>.style0{fill:	#333333;}.style1{fill:	#333333;}</style><g><path d="M360.434 155.564c2.993-0.279 5.882-0.564 8.644-0.857c1.802-3.281 0.232-17.077 0.386-21.119 c0.139-3.719-0.285-11.029-0.633-15.189c-3.017 0.285-6.066 0.548-9.146 0.791C360 126.4 360.4 149.1 360.4 155.564z" class="style0"/><g><path d="M505.968 51.76C497.95 29.8 442 0.7 343.8 0.006c-47.409-0.353-122.138 15.543-122.138 15.5 c-48.788 2.45-115.585 15.207-141.248 27.431c-5.628 3.343-19.188 13.35-14.68 32.516C55.4 73.6 18.1 61.7 15 60.7 c-14.045 8.405-22.667 47.287-5.238 62.891c6.32 1.6 45.5 11.1 50.1 12.06c-5.648 47.5 23.7 74.4 61.1 90.7 c25.561 11.1 98 23.2 170.4 23.152c54.352 0 130.026-6.564 181.879-37.832c21.164-12.764 30.066-23.035 34.787-49.643 c2.057-19.539 3.668-35.526 3.099-46.456C511.071 115.6 514.7 65.3 506 51.76z M299.444 177.926l-0.18-6.131 c19.819-0.844 42.759-2.416 65.831-4.949v7.504L299.444 177.926z M299.018 163.459l-1.361-46.439 c14.948-0.061 39.773-0.637 67.438-3.208v26.362l-43.584-1.406l-0.236 8.336l43.82 1.414v9.945 C341.949 161 318.9 162.6 299 163.459z M147.89 93.411c14.305-11.728 45.618-16.604 45.618-16.604 c34.599-2.331 71.422-3.5 96.519-3.5c40.263 0 96.9 15.6 119.4 26.232c-11.71 2.107-23.983 3.815-36.523 5.16V93.326 l-82.395 1.191l0.285 14.152c-18.434-0.139-37.991-1.582-37.991-1.582c-0.12-4.2 0.477-9.443 0.477-9.443l-36.155-1.561 c0 0-0.428 5.485-0.53 7.056C197.434 101.7 172.1 97.8 147.9 93.411z M121.707 86.622c-1.013-0.226-2.02-0.45-3.015-0.672 c9.99-2.033 23.86-3.924 38.41-5.374c-8.297 3.284-15.914 6.691-20.528 9.248C131.485 88.8 126.5 87.7 121.7 86.622z M297.574 102.86l67.521-1.194v3.823c-22.435 2.121-45.525 3.121-67.683 3.191L297.574 102.86z M224.32 105.2 c4.125 0.2 10.5 0.3 17.5 0.439c1.508 0 2.9 0.1 4.2 0.078c-0.23 12.76-0.604 51.1 2.7 68.1 c-4.792-0.023-10.748-0.066-15.828-0.102c-2.544-0.02-4.83-0.037-6.576-0.045c-1.526-7.541-1.787-21.176-1.984-31.468 c-0.092-4.905-0.18-9.536-0.379-13.077C223.499 121.2 224 110.8 224.3 105.186z M253.171 115.7 c7.63 0.8 23.3 1.2 36.7 1.349l1.372 46.753c-9.517 0.326-34.463 0.459-36.599 0.4 C252.335 150.9 252.6 127.7 253.2 115.658z M372.914 148.769l2.084 0.068l0.235-8.336l-2.319-0.075v-27.389 c49.271-5.181 105.176-16.91 129.761-43.163c1.607 14.1 0.7 37.247-0.266 45.718c-13.087 16.698-51.31 30.518-108.54 39.1 c-6.901 1.039-13.919 1.977-20.955 2.826V148.769z M343.84 8.345c55.678 0 92.9 10.1 114.4 18.5 c25.038 9.9 38.3 21.5 41 29.269c-2.405 4.161-5.927 9.693-17.8 17.022c-9.527-6.376-33-21.353-70.829-34.611 c-42.154-14.776-89.419-23.05-140.734-24.657C295.392 10.2 320.1 8.3 343.8 8.345z M249.25 23.2 c99.81 0 186.5 27.8 222.4 55.547c-18.406 6.931-41.897 15.519-52.296 16.788c-17.152-10.68-82.092-30.568-129.322-30.568 c-38.303 0-156.96 4.007-187.429 16.207c-26.107-2.5-25.166-23.206-16.167-31.505C137.238 32.1 192 23.2 249.2 23.2z M17.075 70.514c20.723 10.6 158.1 37.8 198.3 40.893c-0.296 6.8 0.3 44.2 0.3 48.3 c-28.496-0.695-183.236-37.828-201.186-43.451C4.46 107 6.7 79.1 17.1 70.514z M217.625 168.2 c0.443 4.4 0.6 8.6 2.9 13.795c3.883 0.1 37.667-0.025 37.667-0.025s-1.818-5.65-1.865-9.496 c2.734 0.1 27.2 0.1 36.828-0.223l0.191 14.354l79.521-4.332v-16.322c7.407-0.883 14.788-1.869 22.049-2.963 c49.324-7.432 83.614-18.221 102.344-32.156c-1.338 2.16-2.889 4.052-4.653 5.288c-51.819 36.293-120.731 55.477-199.294 55.5 c-0.003 0-0.015 0-0.021 0c-95.034-0.004-181.955-27.881-215.472-51.649C133.606 153.1 193.5 166.4 217.6 168.201z M500.209 160.973c-5.238 22.879-11.63 31.846-30.88 43.453c-50.365 30.377-124.61 36.752-178.023 36.8 c-71.471 0-142.56-11.693-167.437-22.531c-37.05-16.139-61.68-47.93-56.486-76.575c14.532 12.5 42.3 25.6 77.1 36.1 c46.326 14 99.2 21.7 148.9 21.738c0.01 0 0 0 0 0c80.087-0.004 150.496-19.66 203.591-56.847 c2.132-1.49 3.979-3.483 5.567-5.706C502.072 142.8 500.4 158.7 500.2 160.973z" class="style1"/><ellipse cx="325.9" cy="144.6" rx="6.8" ry="7.3" class="style1"/><ellipse cx="410.9" cy="135.9" rx="5.7" ry="6.8" class="style1"/><ellipse cx="469" cy="119.2" rx="5.2" ry="6.7" class="style1"/></g></g></svg>