<svg xmlns="http://www.w3.org/2000/svg" xmlns:xlink="http://www.w3.org/1999/xlink" version="1.1" x="0px" y="0px" width="34.7px" height="113px" viewBox="0 2 34.7 113" enable-background="new 0 2 34.7 113" xml:space="preserve"><path fill="#333333" d="M30.2 2.3C22 4.2 9.9 3.2 4.9 2c-5 4.5-5.6 21.5-4.4 31.3C1.7 43 2.9 55 2.9 61.5c0 6.4 0.7 47.6 1 52.4 c1.2 0.1 3.9 0.9 5.4 1.2c2.8-0.4 5.1-0.6 7.3-0.9c0.4-6 0.5-86.6 0.6-88.4c0 2.1 1.1 31.6 1.3 38.5c0.1 6.9 0.1 45.7 0.3 49.7 c1.9 0.3 4.4 0.9 7.4 1.2c1.3-0.3 3.1-0.6 5-1.5c0.3-5 0.7-49.8 1.2-56.2C32.8 50.9 38.6 17 30.2 2.3z M15.6 26.2 c-0.1 1.6-0.1 2.9-0.1 3.8c-0.1 1.8-0.1 12.4-0.1 25.9c0 21.3-0.1 49.8-0.3 56.9c-0.4 0-3.7 0.4-5 0.6c0-2.9 0.1-3.6 0.1-4.1 c0-0.5 0.1-0.9 0.1-3.2c0-3.5-1.5-33.6-2.3-49.7c-0.3-5.3-0.5-9.1-0.5-9.8C7.2 43 7 16.6 6.6 15.5c-0.8 1.3-0.2 28.6-0.1 31.1 c0 0.7 0.2 4.6 0.5 9.8c0.8 16.1 2.3 46.2 2.3 49.7c0 2.3 0 2.6-0.1 3.2c0 0.6-0.1 1.2-0.1 4.2c-0.5-0.1-3.1-0.7-3.7-0.9 c-0.3-8.3-1-45-1-51.1c0-8.1-1.8-23.8-2.3-28.4C1 24.1 1.5 12.4 4 7.1c2.9 0.5 9 1 12.1 1.2C16 12 15.7 21 15.6 26.2z M31.2 52.9 c-0.2 1.9-0.3 3.4-0.4 4.4c-0.2 3.6-0.5 19.2-0.7 33c-0.2 9.7-0.3 18.9-0.4 22.3c-1.1 0.4-3.3 0.9-3.4 0.9c0-2.4-0.1-4-0.2-4.4 c0-0.5-0.1-0.9-0.1-3.2c0-3.5 1.5-33.5 2.3-49.7c0.3-5.3 0.5-9.1 0.5-9.8c0.1-2.4 0.7-30-0.3-31.4c-0.5 1.5-0.5 27.9-0.6 31.4 c0 0.7-0.2 4.6-0.5 9.8c-0.8 16.1-2.3 46.2-2.3 49.7c0 2.3 0 2.7 0.1 3.2c0 0.5 0.1 2 0.2 4.3c-1.6-0.2-4.8-0.8-5.1-0.8 c-0.1-3.7-0.1-13.5-0.1-23c0-10.8-0.1-21.9-0.1-25.3c-0.2-7.4-0.7-28.2-1.2-33.4c-0.2-1.9-0.1-5.3-0.1-9.1c2.5-2.1 2.4-9.7 2.2-13.4 c3-0.1 6.7-0.5 9.4-1.3C34.8 17.5 32.3 42.1 31.2 52.9z"/></svg>