<svg xmlns="http://www.w3.org/2000/svg" xmlns:xlink="http://www.w3.org/1999/xlink" version="1.1" x="0px" y="0px" width="55.2px" height="115.5px" viewBox="0 0 55.2 115.5" enable-background="new 0 0 55.2 115.5" xml:space="preserve"><g><polygon fill="#333333" points="41.7,115.5 13.5,115.5 9.9,38 45.3,38"/><g><path fill="#FFFFFF" d="M18.6 110.9c0 0.2-0.2 0.4-0.4 0.4h-1.8c-0.2 0-0.4-0.2-0.4-0.4l0 0c0-0.2 0.2-0.4 0.4-0.4h1.8 C18.4 110.5 18.6 110.7 18.6 110.9L18.6 110.9z"/><path fill="#FFFFFF" d="M22.9 110.9c0 0.2-0.2 0.4-0.4 0.4h-1.8c-0.2 0-0.4-0.2-0.4-0.4l0 0c0-0.2 0.2-0.4 0.4-0.4h1.8 C22.7 110.5 22.9 110.7 22.9 110.9L22.9 110.9z"/><path fill="#FFFFFF" d="M27.2 110.9c0 0.2-0.2 0.4-0.4 0.4H25c-0.2 0-0.4-0.2-0.4-0.4l0 0c0-0.2 0.2-0.4 0.4-0.4h1.8 C27 110.5 27.2 110.7 27.2 110.9L27.2 110.9z"/><path fill="#FFFFFF" d="M31.4 110.9c0 0.2-0.2 0.4-0.4 0.4h-1.8c-0.2 0-0.4-0.2-0.4-0.4l0 0c0-0.2 0.2-0.4 0.4-0.4H31 C31.3 110.5 31.4 110.7 31.4 110.9L31.4 110.9z"/><path fill="#FFFFFF" d="M35.7 110.9c0 0.2-0.2 0.4-0.4 0.4h-1.8c-0.2 0-0.4-0.2-0.4-0.4l0 0c0-0.2 0.2-0.4 0.4-0.4h1.8 C35.5 110.5 35.7 110.7 35.7 110.9L35.7 110.9z"/><path fill="#FFFFFF" d="M40 110.9c0 0.2-0.2 0.4-0.4 0.4h-1.8c-0.2 0-0.4-0.2-0.4-0.4l0 0c0-0.2 0.2-0.4 0.4-0.4h1.8 C39.8 110.5 40 110.7 40 110.9L40 110.9z"/></g></g><path fill="#333333" d="M55.2 25.7c-0.5-3.1-3.4-5.4-8.3-6.5L29.5 15v-2.5c0-0.3-0.1-0.5-0.2-0.8c-0.6-1.7-2.6-2.3-2.7-2.3 c-1.2-0.4-2-1.5-2-2.8c0-1.6 1.3-2.9 2.9-2.9c1.5 0 2.7 1.1 2.9 2.6v1.4c0 1 0.8 1.9 1.9 1.9c1 0 1.9-0.8 1.9-1.9V6.2 c0-0.2 0-0.4-0.1-0.5C33.7 2.4 30.9 0 27.6 0c-3.7 0-6.7 3-6.7 6.7c0 2.9 1.9 5.5 4.7 6.4v2L8.4 19.2c-4.9 1.1-7.9 3.4-8.3 6.5 l0 1.3c0 4.4 3.4 7.3 8.5 7.3h38.2c5.1 0 8.5-2.9 8.5-7.3v-1.2L55.2 25.7z M9.7 30.6H8.5c-1.4 0-4.8-0.3-4.8-3.5v-1 c0.3-1.3 2.4-2.5 5.4-3.2l17-4.1c0.7 0.7 2 0.7 2.7 0L46 22.9c3.1 0.7 5.1 1.9 5.4 3.2v1c0 3.2-3.3 3.5-4.8 3.5h-1.2L9.7 30.6 L9.7 30.6z"/></svg>