<svg xmlns="http://www.w3.org/2000/svg" xmlns:xlink="http://www.w3.org/1999/xlink" version="1.1" x="0px" y="0px" width="81.545px" height="94.761px" viewBox="0 0 81.545 94.761" enable-background="new 0 0 81.545 94.761" xml:space="preserve"><g><g><path fill="#333333" d="M64.551 84.645c-0.167-3.679-0.292-5.685-0.058-10.466c0.246-5.012 0.623-17.252 1-27.044 c1.16 19.3 5.4 47 5.4 47.001c8.193 1.2 10 0.3 10 0.336c2.508-17.225-2.842-55.351-4.18-63.879 c-1.34-8.527-3.178-17.971-3.178-17.971L59.208 8.469l0.426-0.778L53.589 5.5c-0.176-1.402-2.803-1.928-2.803-1.928 c-0.111 1.334-0.363 2.628-0.531 3.399l-9.483 70.537L31.44 7.383c-0.15-0.636-0.492-2.192-0.626-3.811 c0 0-2.628 0.525-2.803 1.928l-6.045 2.19l0.417 0.764L8.018 12.623c0 0-1.838 9.443-3.177 18 C3.504 39.122-1.848 77.2 0.7 94.472c0 0 1.8 0.8 10.033-0.336c0 0 4.115-30.11 5.275-49.448 c0.941 10.2 2.3 18.8 2.3 26.739c0 5.29-0.021 9.539-0.188 13.218H64.551z"/><path fill="#333333" d="M46.767 3.118c-1.199 0-3.133 0.763-4.751 1.516c-0.397-0.2-0.859-0.32-1.359-0.32 c-0.499 0-0.961 0.12-1.357 0.32c-1.619-0.753-3.552-1.516-4.751-1.516c-2.368 0-0.969 1.332-0.969 3 c0 1.641-1.399 3 1 2.973c1.043 0 2.643-0.577 4.106-1.222c0.481 0.5 1.2 0.8 2 0.8 c0.81 0 1.523-0.307 2.003-0.777c1.465 0.6 3.1 1.2 4.1 1.222c2.367 0 0.969-1.332 0.969-2.973 C47.736 4.5 49.1 3.1 46.8 3.118z"/></g><g><polygon fill="#FFFFFF" points="51.6,40 51.6,31.1 60.1,40"/><polygon fill="#FFFFFF" points="61.3,40 61.3,31.1 52.8,40"/></g></g></svg>