<svg xmlns="http://www.w3.org/2000/svg" xmlns:xlink="http://www.w3.org/1999/xlink" version="1.1" x="0px" y="0px" width="50.4px" height="120.9px" viewBox="5 5 50.4 120.9" enable-background="new 5 5 50.4 120.9" xml:space="preserve"><g><path fill="#333333" d="M47.3 27.6l1-5.4c0.1-0.3-0.2-0.6-0.5-0.7l-2.4-0.4L32.2 42.5l2.6 8.1c-0.2 0-0.3 0.1-0.5 0.1L14.9 21.3 L11.5 22c0 0 2.7 20.8 2.9 23.9c0 0.1 0 0.1 0 0.2c0 0.1 0 0.1 0 0.2c0 0.1 0 0.3 0.1 0.4c0.1 0.5 0.2 0.9 0.2 0.9l3.7 8.1 c0.2 1 1.3 4.2 1.6 5.1c0 0 0.4 4.7-2 8.5c0 0 0 0.1-0.1 0.1c-2 2.8-3.3 13.3-3.3 17l2.2 37.4c0 0 10.1 4.8 26.5 0l2.2-37.4 c0-3.7-1.2-14.2-3.3-17c0 0 0-0.1-0.1-0.1c-2.4-3.7-2-8.5-2-8.5c0.1-0.2 0.1-0.4 0.2-0.7l0.2 0.1l-0.1-0.2c0.4-1.3 1.2-3.5 1.3-4.2 l3.7-8.1c0 0 0.2-0.8 0.3-1.5l0 0L47.3 27.6z"/><g><path fill="#333333" d="M55.4 28.5c-0.4-2.8-3.1-4.9-7.6-5.9l-15.9-3.9v-2.3c0-0.2 0-0.5-0.1-0.7c-0.5-1.6-2.4-2.1-2.4-2.1 c-1.1-0.4-1.8-1.4-1.8-2.5c0-1.5 1.2-2.7 2.7-2.7c1.4 0 2.5 1 2.7 2.4V12c0 0.9 0.8 1.7 1.7 1.7c0.9 0 1.7-0.8 1.7-1.7v-1.4 c0-0.2 0-0.3-0.1-0.5c-0.4-3-3-5.2-6-5.2c-3.4 0-6.1 2.7-6.1 6.1c0 2.7 1.8 5 4.3 5.8v1.8l-15.7 3.8c-4.5 1-7.2 3.1-7.6 5.9l0 1.2 c0 4 3.1 6.6 7.8 6.6h34.8c4.7 0 7.8-2.7 7.8-6.6v-1.1L55.4 28.5z M13.8 32.9h-1.1c-1.3 0-4.4-0.3-4.4-3.2v-0.9 c0.3-1.2 2.1-2.3 5-2.9l15.5-3.8c0.6 0.6 1.8 0.6 2.5 0L47 25.9c2.8 0.6 4.6 1.7 4.9 2.9v0.9c0 2.9-3 3.2-4.4 3.2h-1.1L13.8 32.9 L13.8 32.9z"/><g><path fill="#FFFFFF" d="M22.4 64.5c-0.1 0.4-0.6 0.6-1.1 0.5c-0.5-0.1-0.8-0.6-0.6-1c0.1-0.4 0.6-0.6 1.1-0.5 C22.2 63.7 22.5 64.1 22.4 64.5z"/><path fill="#FFFFFF" d="M24.8 65c-0.1 0.4-0.5 0.7-1 0.6c-0.5-0.1-0.8-0.5-0.7-0.9c0.1-0.4 0.6-0.7 1-0.6 C24.6 64.2 24.9 64.6 24.8 65z"/><path fill="#FFFFFF" d="M27.2 65.4c0 0.4-0.5 0.7-1 0.7c-0.5-0.1-0.8-0.5-0.8-0.9c0.1-0.4 0.5-0.7 1-0.6 C26.9 64.6 27.3 64.9 27.2 65.4z"/><path fill="#FFFFFF" d="M29.7 65.5c0 0.4-0.4 0.8-0.9 0.7c-0.5 0-0.9-0.4-0.8-0.8c0-0.4 0.4-0.7 0.9-0.7 C29.3 64.7 29.7 65.1 29.7 65.5z"/><path fill="#FFFFFF" d="M32.1 65.4c0 0.4-0.3 0.8-0.8 0.8c-0.5 0-0.9-0.3-0.9-0.7c0-0.4 0.4-0.8 0.8-0.8 C31.7 64.7 32.1 65 32.1 65.4z"/><path fill="#FFFFFF" d="M34.5 65.1c0.1 0.4-0.3 0.8-0.8 0.9c-0.5 0.1-0.9-0.2-1-0.7c0-0.4 0.3-0.8 0.8-0.9 C34.1 64.4 34.5 64.7 34.5 65.1z"/><path fill="#FFFFFF" d="M37 64.7c0.1 0.4-0.2 0.8-0.7 0.9c-0.5 0.1-1-0.2-1-0.6c-0.1-0.4 0.2-0.8 0.7-0.9 C36.4 64 36.9 64.3 37 64.7z"/><path fill="#FFFFFF" d="M39.3 64c0.1 0.4-0.1 0.9-0.6 1c-0.5 0.1-1-0.1-1.1-0.5c-0.1-0.4 0.2-0.8 0.6-1 C38.7 63.4 39.2 63.6 39.3 64z"/></g><path fill="#333333" d="M47.9 72.7c-0.6-2.6-2.4-3.8-4.2-5c-0.9-0.7-1.8-1.3-2.6-2.1c0.6 0.2 1.3 0.4 1.9 0.4 c0.4 0 0.8-0.1 1.1-0.2c0.3-0.2 0.9-0.6 0.8-1.6c-0.1-0.7-0.5-1.2-1.1-1.4c-0.4-0.2-0.8-0.2-1.3-0.2c0.4-0.4 0.7-0.9 0.7-1.4 c0-0.4-0.1-1-0.9-1.5c-0.6-0.4-1.2-0.2-1.5-0.1c-1.1 0.6-1.7 2.5-1.7 3.3c0 0.3 0.2 0.5 0.4 0.5c0 0 0.1 0 0.1 0 c-0.1 0-0.2 0.1-0.2 0.1c-0.2 0.2-0.2 0.4-0.1 0.6c0.1 0.1 0.2 0.2 0.3 0.2v0c-0.2 0.1-0.3 0.4-0.2 0.6c0.9 1.6 2.3 2.6 3.7 3.6 c1.7 1.2 3.3 2.3 3.8 4.5c0.1 0.2 0.2 0.4 0.5 0.4c0 0 0.1 0 0.1 0C47.8 73.2 48 73 47.9 72.7z M43.5 63.5 c0.3 0.1 0.5 0.4 0.6 0.7c0.1 0.4-0.1 0.6-0.3 0.7c-0.8 0.4-2.9-0.3-3.4-0.8c-0.1-0.1-0.1-0.1-0.2-0.1c0 0 0.1 0 0.1-0.1 c0 0 0.1 0 0.1 0c0.1 0 0.3-0.1 0.5-0.2C41.8 63.4 42.9 63.2 43.5 63.5z M40.1 62.9c0.1-0.7 0.5-2.2 1.2-2.6 c0.1-0.1 0.3-0.1 0.6 0c0.5 0.3 0.5 0.5 0.5 0.6c-0.1 0.6-1.1 1.5-1.8 1.9c-0.2 0.1-0.4 0.2-0.6 0.3C40 63.1 40.1 63 40.1 62.9z"/></g></g></svg>