<svg xmlns="http://www.w3.org/2000/svg" xmlns:xlink="http://www.w3.org/1999/xlink" version="1.1" id="Layer_1" x="0px" y="0px" width="235.156px" height="87.277px" viewBox="0 0 235.156 87.277" enable-background="new 0 0 235.156 87.277" xml:space="preserve"><style>.style0{fill:	none;}.style1{fill:	#333333;}</style><g><path d="M149.979 64.496c4.715 5.1 10.1 8.5 15.9 10.57c3.422 1.2 7 2.1 10.7 2.5 c2.68 0.3 5.4 0.5 8.2 0.502c5.578-0.237 10.558-1.759 14.543-4.854c3.701-2.871 6.652-7.185 8.555-13.164 c1.406-4.511 2.408-8.454 3.363-12.211c3.004-11.841 8.7-32.479-2.514-36.091c-10.206-2.5-20.373-3.664-30.492-3.611L176.57 8.2 c-9.503 0.238-18.688 2.077-28.17 4.379C129.142 18.8 140.2 51.9 150 64.496z" class="style0"/><path d="M231.646 16.167c-0.736-3.85-4.357-6.549-8.986-8.52c-3.72-1.588-8.21-2.805-12.003-3.771l-0.033-0.014 c-10.902-2.659-21.726-3.916-32.468-3.862l-1.586 0.026V8.19l1.605-0.026c10.119-0.053 20.3 1.1 30.5 3.6 c11.214 3.6 5.5 24.2 2.5 36.091c-0.955 3.757-1.957 7.7-3.363 12.211c-1.902 5.979-4.854 10.293-8.555 13.2 c-3.985 3.096-8.965 4.617-14.543 4.854c-2.745 0-5.471-0.158-8.15-0.502v8.229c2.753 0.3 5.5 0.4 8.3 0.437h0.146 c7.262-0.304 13.848-2.354 19.266-6.575c4.979-3.863 8.886-9.485 11.333-17.159l0.007-0.013c1.339-4.312 2.427-8.586 3.461-12.674 c1.817-7.145 3.635-13.932 7.739-20.797c2.215-3.744 5.558-7.74 4.828-12.714L231.646 16.167z" class="style1"/><path d="M165.914 75.066c-5.796-2.116-11.221-5.504-15.936-10.57c-9.802-12.555-20.837-45.722-1.578-51.927 c9.482-2.302 18.667-4.141 28.17-4.379V0.028c-10.259 0.185-20.432 1.548-30.518 4.008l-0.252 0.1 c-6.526 2.063-11.348 5.953-14.404 10.875c-3.217 5.186-4.424 11.483-3.541 17.926l0.02 0.1 c1.041 6.4 2.8 12.7 5.3 18.826c2.573 6.2 6 12.1 10.4 17.728l0.22 0.2 c5.703 6.2 12.3 10.3 19.4 12.912c4.35 1.6 8.9 2.6 13.4 3.096v-8.229C172.91 77.1 169.3 76.3 165.9 75.066z" class="style1"/></g><g><path d="M27.201 12.172c-12.574 2.738-6.261 23.589-3.449 36.011c0.855 3.8 1.8 7.8 3 12.3 c1.75 6 4.6 10.4 8.2 13.375c3.906 3.2 8.8 4.9 14.4 5.226c3.097 0.1 6.174-0.026 9.198-0.396 c3.309-0.396 6.552-1.098 9.682-2.144c5.855-1.971 11.359-5.212 16.207-10.146c10.12-12.304 22.018-45.18 2.925-51.874 c-9.675-2.619-19.052-4.736-28.813-5.133l-0.843-0.04C47.659 9 37.5 9.9 27.2 12.172z" class="style0"/><path d="M115.58 9.129c-5.524 0.225-10.73 1.19-15.703 2.659c-2.594-2.408-5.81-4.34-9.637-5.662l-0.245-0.08 C79.65 3.2 69.2 1.6 58.6 1.218v8.176c9.762 0.4 19.1 2.5 28.8 5.133c19.093 6.7 7.2 39.57-2.925 51.9 c-4.848 4.935-10.352 8.176-16.207 10.146c-3.13 1.046-6.373 1.747-9.682 2.144v8.216c4.164-0.45 8.282-1.283 12.274-2.633 c7.129-2.395 13.82-6.363 19.676-12.396l0.232-0.238c4.529-5.503 8.077-11.364 10.81-17.449c2.719-6.086 4.603-12.344 5.809-18.694 l0.021-0.118c0.484-2.95 0.524-5.9 0.119-8.731c2.799-0.636 5.69-1.059 8.721-1.178c4.688-0.198 9.7 0.3 15.1 1.7 l4.172-15.77C128.346 9.5 121.7 8.9 115.6 9.129z" class="style1"/><path d="M49.417 79.087c-5.564-0.37-10.505-2.023-14.411-5.226c-3.621-2.963-6.459-7.355-8.209-13.375 c-1.287-4.551-2.189-8.52-3.045-12.304c-2.812-12.422-9.125-33.272 3.449-36.011C37.467 9.9 47.7 9 57.8 9.354l0.843 0 V1.218l-0.604-0.014C47.268 0.9 36.4 1.8 25.4 4.221h-0.033c-3.82 0.873-8.336 1.972-12.096 3.5 c-4.682 1.865-8.369 4.459-9.205 8.282l-0.033 0.172c-0.855 4.9 1.1 9 3.4 13.349c5.63 10.8 7.8 20.5 11.4 33.2 v0.013c2.248 7.7 6 13.4 10.9 17.437c5.305 4.4 11.8 6.6 19.1 7.065h0.146c3.203 0.1 6.4 0 9.576-0.331 v-8.216C55.591 79.1 52.5 79.2 49.4 79.087z" class="style1"/></g></svg>