<?xml version="1.0" encoding="utf-8"?>
<!-- Generator: Adobe Illustrator 15.1.0, SVG Export Plug-In . SVG Version: 6.00 Build 0)  -->
<!DOCTYPE svg PUBLIC "-//W3C//DTD SVG 1.1//EN" "http://www.w3.org/Graphics/SVG/1.1/DTD/svg11.dtd">
<svg version="1.1" id="Layer_1" xmlns="http://www.w3.org/2000/svg" xmlns:xlink="http://www.w3.org/1999/xlink" x="0px" y="0px"
	 width="350px" height="455.989px" viewBox="0 0 350 455.989" enable-background="new 0 0 350 455.989" xml:space="preserve">
<g>
	<path fill="#333333" d="M151.375,58.079c8.074,10.497,14.54,6.449,15.258-5.778c1.207-20.513,1.861-25.167,2.357-37.614
		c0.195-4.905,2.479-11.362-11.797-11.38c-10.971-0.014-22.875-0.42-33.834,0.072c-10.038,0.451-11.192,5.218-7.924,9.96
		C124.312,26.223,140.606,44.081,151.375,58.079z"/>
	<path fill="#333333" d="M49.115,36.781c11.878-8.607,31.05-22.458,34.114-24.414c4.49-2.867,5.883-9.127-1.898-9.209
		c-4.866-0.051-19.709-0.004-30.149,0.038C44.928,3.222,40.165,4.213,40.165,9.07s-0.328,13.297-0.332,21.403
		C39.829,38.577,43.58,40.792,49.115,36.781z"/>
	<path fill="#333333" d="M63.582,137.543c-0.014-0.264-0.04-0.525-0.04-0.793c0-8.411,6.818-15.229,15.229-15.229
		c2.148,0,4.19,0.45,6.044,1.253l65.528-45.585c-13.312-16.538-24.809-30.715-33.322-41.046
		c-7.717-9.365-15.393-16.765-26.048-9.792c-23.648,15.477-58.858,38.665-79.3,51.656c-9.708,6.168-10.07,16.98-3.602,24.493
		c9.419,10.942,23.306,27.121,39.585,46.124L63.582,137.543z"/>
	<path fill="#333333" d="M339.473,316.403c-15.322-20.625-114.63-146.426-180.097-227.978l-65.623,45.651
		c0.153,0.869,0.248,1.759,0.248,2.672c0,8.412-6.819,15.23-15.23,15.23c-2.819,0-5.45-0.779-7.714-2.114l-13.997,9.737
		c63.325,73.958,154.142,180.435,167.362,197.181c16.594,21.02,28.764,3.873,19.286-9.428
		c-20.858-29.273-22.761-34.588-33.919-49.18c23.402,27.467,41.354,50.398,57.784,70.037c16.782,20.055,35.2,6.957,19.053-14.85
		c-19.312-26.074-38.626-55.792-47.209-66.949c24.033,29.184,72.958,87.549,72.958,87.549c16.035,19.324,38.159,1.625,20.6-18.023
		c-13.4-14.996-49.781-64.374-60.94-78.965c27.466,28.322,38.624,45.49,52.356,59.225
		C338.125,349.93,355.764,338.334,339.473,316.403z"/>
	<path fill="#333333" d="M158.678,310.768c-1.042-8.876-2.199-14.555-8.411-21.719c-26.116-30.122-93.047-109.388-101.03-118.546
		c-9.882-11.335-10.229,5.267-10.021,9.517c4.773,97.693,5.444,209.777,6.986,230.891c1.994,27.246,24.492,24.502,25.918,5.135
		c1.425-19.369,0.192-38.15,0.952-79.045c1.083,18.338,5.797,79.488,5.447,99.598c-0.459,26.35,27.854,25.299,27.371,0.189
		c0,0-1.086-76.15-1.955-113.947c0.79,14.057,5.568,49.174,7.993,81.531c2.106,28.105,25,23.402,24.007-3.711
		c-1.008-27.537-1.958-46.055-2.432-81.666c2.09,18.52,4.748,36.561,6.994,52.791c2.856,20.637,21.971,21.281,20.761-5.463
		C160.92,358.891,159.72,319.643,158.678,310.768z"/>
</g>
</svg>
