<?xml version="1.0" encoding="utf-8"?>
<!-- Generator: Adobe Illustrator 15.1.0, SVG Export Plug-In . SVG Version: 6.00 Build 0)  -->
<!DOCTYPE svg PUBLIC "-//W3C//DTD SVG 1.1//EN" "http://www.w3.org/Graphics/SVG/1.1/DTD/svg11.dtd">
<svg version="1.1" id="Layer_1" xmlns="http://www.w3.org/2000/svg" xmlns:xlink="http://www.w3.org/1999/xlink" x="0px" y="0px"
	 width="527.398px" height="294.05px" viewBox="0 0 527.398 294.05" enable-background="new 0 0 527.398 294.05"
	 xml:space="preserve">
<g>
	<path fill="#333333" d="M377.211,191.919c-6.67,0-12.078,5.399-12.078,12.072c0,6.699,5.4,12.1,12.1,12.1
		c6.656,0,12.064-5.401,12.064-12.062c-0.021-6.729-5.396-12.129-12.097-12.109H377.211z"/>
	<path fill="#333333" d="M293.064,201.837c-0.877-2.355-0.654-5.061,1.01-7.17c2.556-3.217,7.221-3.752,10.43-1.211l7.146,5.699
		v-12.939c0-4.635,3.758-8.395,8.395-8.395c4.635,0,8.4,3.801,8.4,8.395v6.537l1.768-2.235c2.557-3.208,7.221-3.744,10.43-1.194
		c0.387,0.299,0.601,0.699,0.9,1.047h5.452l-2.912-2.312c-4.203-3.32-4.901-9.419-1.575-13.608c3.314-4.197,9.42-4.896,13.609-1.574
		l9.33,7.398V163.35c0-6.054,4.902-10.958,10.949-10.958s10.9,4.9,10.9,11v8.527l2.316-2.912c3.328-4.188,9.42-4.889,13.609-1.567
		c4.204,3.3,4.9,9.399,1.601,13.608l-7.396,9.33h6.21c15.107-2.904,30.352-6.402,45.641-10.637C446.756,80,365.2,0,264.9,0
		C165.608,0,84.7,78.5,80.7,176.9c24.455,6.801,108.1,27.301,212.399,24.938H293.064z"/>
	<path fill="#333333" d="M320.682,208.076c-5.109,0-9.24,4.137-9.24,9.248c0,5.1,4.101,9.2,9.201,9.2c5.11,0,9.24-4.138,9.24-9.241
		c0.04-5.082-4.083-9.183-9.183-9.207H320.682z"/>
	<path d="M346.042,226.876c0.09-1.121,0.356-2.176,0.834-3.23h-4.294l2.229,1.8c0.519,0.354,0.89,0.954,1.189,1.431H346.042z"/>
	<path fill="#333333" d="M458.374,192.794c-11.068,3.174-22.106,5.861-33.101,8.345c0,0.101,0,0.101,0,0.2
		c0,6.047-4.903,10.949-10.966,10.949h-8.526l2.912,2.311c4.188,3.3,4.899,9.4,1.6,13.6c-3.328,4.189-9.434,4.889-13.625,1.567
		l-9.329-7.392v16.885c0,6.056-4.903,10.957-10.948,11c-6.049,0-10.949-4.901-10.949-10.957v-8.526l-2.318,2.912
		c-3.312,4.188-9.42,4.888-13.609,1.601c-0.891-0.707-1.544-1.59-2.107-2.504c-0.225,1.121-0.625,2.215-1.383,3.172
		c-2.541,3.209-7.221,3.744-10.431,1.203l-7.146-5.668v12.94c0,4.635-3.76,8.394-8.395,8.394c-4.637,0-8.395-3.759-8.395-8.394
		v-6.536l-1.768,2.2c-2.541,3.209-7.207,3.745-10.432,1.196c-3.207-2.549-3.743-7.221-1.203-10.422l5.676-7.154h-12.955
		c-3.966,0-7.131-2.807-8.007-6.508c-2.081,0.018-4.233,0.09-6.3,0.09c-101.946,0-181.682-20.459-202.556-26.37L0,259.3
		c0,0,262,79.699,527.398-2.281L458.374,192.794z"/>
</g>
</svg>
