<?xml version="1.0" encoding="utf-8"?>
<!-- Generator: Adobe Illustrator 15.1.0, SVG Export Plug-In . SVG Version: 6.00 Build 0)  -->
<!DOCTYPE svg PUBLIC "-//W3C//DTD SVG 1.1//EN" "http://www.w3.org/Graphics/SVG/1.1/DTD/svg11.dtd">
<svg version="1.1" id="Layer_1" xmlns="http://www.w3.org/2000/svg" xmlns:xlink="http://www.w3.org/1999/xlink" x="0px" y="0px"
	 width="100.47px" height="285.822px" viewBox="0 0 100.47 285.822" enable-background="new 0 0 100.47 285.822"
	 xml:space="preserve">
<g>
	<path fill="#333333" d="M57.563,12.236c-0.132-0.127-0.567-0.35-1.42-0.569c-0.026-0.138-0.002,0.867,0,0.854
		C57.117,12.442,57.457,12.303,57.563,12.236z"/>
	<path fill="#333333" d="M54.323,12.412l-0.159-0.002c0.081,0.16,0.239,0.275,0.429,0.278c0.271,0.005,0.499-0.215,0.505-0.489
		c0.004-0.273-0.217-0.5-0.491-0.506c-0.17-0.001-0.314,0.091-0.405,0.224l0.133,0.002c0.081,0.001,0.151,0.111,0.15,0.246
		C54.48,12.303,54.407,12.412,54.323,12.412z"/>
	<path fill="#333333" d="M53.305,12.666c0.189,0.004,0.352-0.105,0.436-0.263l-0.193-0.002c-0.083-0.005-0.152-0.116-0.147-0.252
		c0.003-0.136,0.07-0.246,0.156-0.243l0.165,0.003c-0.086-0.136-0.229-0.231-0.399-0.234c-0.276-0.003-0.501,0.217-0.507,0.489
		C52.815,12.436,53.033,12.664,53.305,12.666z"/>
	<path fill="#333333" d="M100.227,33.187c0,0,0.001,0,0.002,0c-0.007-0.116-0.016-0.229-0.023-0.345
		c-0.031-0.534-0.064-1.066-0.102-1.595c-0.459-6.74-1.359-13.015-2.982-18.4c-1.389-5.194-2.787-9.187-4.469-12.408
		C81.449,4.385,60.135,6.05,47.403,4.987C35.414,4.633,13.493,1.41,7.853,0c-4.28,5.702-6.906,32.023-6.907,32.033
		c-1.691,17.204-1.208,37.582,2.227,53.171c4.926,22.353,6.819,39.776,9.094,64.403c2.272,24.623,0,50.764,3.029,68.945
		c3.02,18.115,6.038,47.881,6.81,58.967c-0.016,1.302-0.019,2.253,0.062,5.062c2.975,5.191,16.997,3.303,18.58,0.181
		c0-3.588-0.171-6.499-0.179-6.065c0.378-24.621-0.271-51.327,0.486-69.508c0.758-18.187-0.391-98.5,4.926-131.835
		c0.617-3.869,1.167-8.075,1.628-12.446c0.075-0.118,0.209-0.191,0.355-0.178c0.208,0.023,0.359,0.209,0.34,0.416
		c-0.06,0.583-0.122,1.157-0.186,1.721c0.094,0.024,0.188,0.052,0.278,0.081c0.199,0.064,0.31,0.277,0.246,0.476
		c-0.049,0.157-0.192,0.255-0.348,0.261c4.494,1.75,4.82,7.549,4.82,15.923c0,9.093,2.273,46.976,1.514,69.326
		c-0.756,22.353-0.756,76.146-0.756,91.297c0,15.156-0.517,26.379-0.896,35.089c0.012,0.008,0.025,0.014,0.037,0.021
		c-0.006,0-0.012,0.001-0.018,0.001c0.023,1.596-0.025,2.61,0,4.703c2.975,5.192,17.1,4.326,18.686,1.202
		c0.18-2.232,0.346-4.476,0.434-5.594c-0.014,0.008-0.03,0.017-0.047,0.025c1.172-17.521,9.076-59.734,7.943-73.709
		c-1.137-14.016,6.818-69.705,10.229-84.101C93.014,108.156,102.059,65.582,100.227,33.187z M95.764,9.452
		c0.179,0.59,0.355,1.197,0.533,1.825c0.059,0.202-0.059,0.412-0.262,0.467c-0.033,0.01-0.068,0.015-0.103,0.015
		c-0.165,0-0.317-0.108-0.364-0.275c-0.176-0.625-0.353-1.229-0.53-1.812c-0.06-0.201,0.054-0.411,0.253-0.472
		C95.494,9.141,95.703,9.252,95.764,9.452z M95.584,13.024c-0.613,0.15-1.229,0.299-1.848,0.445
		c-0.029,0.007-0.058,0.009-0.088,0.009c-0.172,0-0.328-0.117-0.369-0.291c-0.047-0.205,0.081-0.407,0.283-0.458
		c0.616-0.143,1.229-0.291,1.84-0.442c0.201-0.052,0.408,0.074,0.459,0.277C95.911,12.766,95.788,12.972,95.584,13.024z
		 M94.083,5.61c0.198-0.07,0.415,0.031,0.486,0.23c0.208,0.574,0.417,1.179,0.621,1.799c0.065,0.198-0.042,0.412-0.242,0.476
		c-0.04,0.014-0.079,0.019-0.118,0.019c-0.158,0-0.307-0.1-0.359-0.26c-0.201-0.61-0.408-1.209-0.613-1.779
		C93.786,5.898,93.887,5.68,94.083,5.61z M92.637,2.11c0.188-0.085,0.414,0,0.501,0.189c0.254,0.557,0.507,1.147,0.751,1.757
		c0.078,0.192-0.015,0.414-0.209,0.491c-0.047,0.02-0.094,0.027-0.141,0.027c-0.148,0-0.293-0.088-0.351-0.235
		c-0.242-0.597-0.491-1.177-0.74-1.727C92.364,2.423,92.447,2.198,92.637,2.11z M92.168,13.442c0.045,0.204-0.084,0.405-0.286,0.449
		c-0.617,0.14-1.237,0.273-1.857,0.405c-0.026,0.005-0.052,0.007-0.079,0.007c-0.175,0-0.331-0.121-0.369-0.299
		c-0.044-0.204,0.089-0.406,0.291-0.449c0.618-0.131,1.234-0.266,1.85-0.401C91.922,13.111,92.125,13.236,92.168,13.442z
		 M89.702,1.754c0.621-0.172,1.229-0.35,1.804-0.534c0.2-0.064,0.413,0.048,0.477,0.249c0.062,0.199-0.048,0.411-0.248,0.474
		c-0.585,0.185-1.202,0.368-1.831,0.542c-0.033,0.011-0.066,0.013-0.1,0.013c-0.166,0-0.32-0.11-0.365-0.277
		C89.381,2.019,89.5,1.81,89.702,1.754z M88.461,14.233c0.041,0.207-0.091,0.405-0.297,0.447c-0.619,0.125-1.242,0.247-1.863,0.363
		c-0.024,0.006-0.047,0.007-0.07,0.007c-0.18,0-0.338-0.124-0.373-0.307c-0.038-0.207,0.098-0.404,0.303-0.443
		c0.617-0.118,1.236-0.239,1.855-0.361C88.221,13.897,88.42,14.029,88.461,14.233z M86.042,2.653
		c0.625-0.135,1.238-0.277,1.838-0.423c0.199-0.05,0.406,0.075,0.457,0.278c0.049,0.202-0.074,0.408-0.277,0.457
		c-0.605,0.147-1.225,0.291-1.855,0.429c-0.027,0.007-0.055,0.01-0.082,0.01c-0.174,0-0.33-0.121-0.368-0.298
		C85.708,2.901,85.836,2.699,86.042,2.653z M82.338,3.38c0.627-0.11,1.246-0.223,1.855-0.344c0.205-0.041,0.403,0.094,0.443,0.299
		c0.041,0.205-0.093,0.404-0.297,0.443c-0.615,0.12-1.24,0.237-1.871,0.349c-0.023,0.004-0.045,0.005-0.064,0.005
		c-0.183,0-0.342-0.129-0.373-0.312C81.995,3.614,82.131,3.417,82.338,3.38z M84.741,14.949c0.037,0.206-0.098,0.403-0.306,0.439
		c-0.622,0.113-1.247,0.223-1.868,0.329c-0.021,0.004-0.041,0.006-0.064,0.006c-0.179,0-0.34-0.132-0.371-0.315
		c-0.037-0.207,0.102-0.403,0.309-0.437c0.62-0.105,1.239-0.215,1.861-0.325C84.506,14.605,84.704,14.745,84.741,14.949z
		 M78.606,3.975c0.629-0.089,1.25-0.184,1.869-0.282c0.211-0.032,0.401,0.107,0.434,0.314c0.033,0.209-0.109,0.402-0.314,0.434
		c-0.621,0.099-1.248,0.192-1.881,0.287c-0.017,0.002-0.035,0.002-0.053,0.002c-0.188,0-0.349-0.135-0.375-0.325
		C78.256,4.197,78.399,4.007,78.606,3.975z M81.012,15.592c0.032,0.207-0.109,0.4-0.314,0.435c-0.627,0.1-1.252,0.197-1.876,0.292
		c-0.019,0.002-0.037,0.005-0.056,0.005c-0.184,0-0.347-0.135-0.375-0.323c-0.031-0.207,0.111-0.401,0.318-0.432
		c0.621-0.094,1.244-0.19,1.867-0.291C80.784,15.242,80.979,15.386,81.012,15.592z M74.86,4.462
		c0.629-0.074,1.252-0.151,1.874-0.231c0.208-0.029,0.397,0.12,0.425,0.326s-0.119,0.398-0.326,0.425
		c-0.627,0.081-1.256,0.157-1.885,0.231c-0.015,0.001-0.031,0.002-0.045,0.002c-0.189,0-0.353-0.142-0.377-0.336
		C74.502,4.673,74.653,4.483,74.86,4.462z M77.266,16.166c0.027,0.207-0.115,0.399-0.324,0.429
		c-0.629,0.088-1.255,0.174-1.878,0.258c-0.016,0.002-0.034,0.002-0.052,0.002c-0.186,0-0.349-0.138-0.374-0.328
		c-0.028-0.207,0.118-0.397,0.325-0.424c0.623-0.082,1.248-0.169,1.873-0.258C77.043,15.812,77.235,15.958,77.266,16.166z
		 M71.1,4.851c0.626-0.058,1.255-0.119,1.881-0.183c0.209-0.025,0.396,0.128,0.416,0.337c0.021,0.209-0.131,0.394-0.336,0.416
		c-0.633,0.066-1.262,0.128-1.893,0.185c-0.012,0.002-0.023,0.002-0.034,0.002c-0.196,0-0.358-0.149-0.379-0.345
		C70.739,5.054,70.89,4.87,71.1,4.851z M73.51,16.674c0.025,0.205-0.121,0.396-0.329,0.421c-0.633,0.079-1.261,0.154-1.885,0.227
		c-0.015,0-0.03,0.001-0.044,0.001c-0.189,0-0.354-0.141-0.377-0.335c-0.023-0.208,0.124-0.396,0.334-0.419
		c0.623-0.072,1.249-0.146,1.877-0.224C73.297,16.317,73.485,16.467,73.51,16.674z M67.329,5.154
		c0.627-0.043,1.255-0.09,1.887-0.141c0.211-0.017,0.391,0.138,0.407,0.346c0.017,0.21-0.14,0.393-0.349,0.41
		c-0.633,0.049-1.266,0.098-1.896,0.14c-0.009,0-0.019,0-0.025,0c-0.196,0-0.364-0.151-0.379-0.351
		C66.959,5.349,67.117,5.167,67.329,5.154z M69.747,17.113c0.021,0.209-0.129,0.395-0.338,0.416
		c-0.635,0.067-1.266,0.131-1.89,0.192c-0.011,0-0.024,0.002-0.036,0.002c-0.191,0-0.356-0.146-0.376-0.342
		c-0.02-0.209,0.132-0.393,0.341-0.414c0.619-0.062,1.248-0.124,1.88-0.191C69.541,16.76,69.723,16.904,69.747,17.113z
		 M65.974,17.484c0.019,0.209-0.136,0.392-0.344,0.412c-0.64,0.054-1.271,0.107-1.892,0.155c-0.01,0-0.021,0-0.029,0
		c-0.197,0-0.363-0.15-0.379-0.349c-0.016-0.207,0.14-0.39,0.348-0.405c0.621-0.049,1.249-0.101,1.889-0.156
		C65.768,17.12,65.958,17.278,65.974,17.484z M63.551,5.371c0.625-0.028,1.254-0.061,1.888-0.098
		c0.204-0.012,0.388,0.147,0.399,0.356c0.014,0.211-0.147,0.388-0.355,0.4C64.846,6.066,64.212,6.1,63.586,6.13
		c-0.006,0-0.013,0-0.018,0c-0.201,0-0.369-0.159-0.379-0.361C63.18,5.56,63.342,5.383,63.551,5.371z M62.198,17.787
		c0.012,0.207-0.145,0.387-0.354,0.401c-0.645,0.043-1.275,0.083-1.896,0.117c-0.006,0-0.016,0-0.021,0
		c-0.2,0-0.366-0.155-0.378-0.356c-0.012-0.209,0.147-0.388,0.356-0.4c0.619-0.034,1.248-0.073,1.886-0.116
		C62.006,17.416,62.182,17.578,62.198,17.787z M58.432,35.896c0.152-0.574,0.281-1.185,0.387-1.817
		c0.033-0.205,0.23-0.347,0.436-0.311c0.207,0.033,0.348,0.229,0.312,0.435c-0.109,0.655-0.244,1.292-0.402,1.886
		c-0.045,0.169-0.199,0.281-0.367,0.281c-0.031,0-0.062-0.003-0.095-0.013C58.5,36.303,58.377,36.097,58.432,35.896z M58.557,37.931
		c-0.25,0.625-0.537,1.214-0.857,1.752c-0.07,0.118-0.197,0.185-0.326,0.185c-0.065,0-0.133-0.018-0.195-0.054
		c-0.18-0.109-0.237-0.339-0.129-0.52c0.299-0.502,0.569-1.055,0.805-1.645c0.08-0.195,0.301-0.29,0.494-0.212
		C58.542,37.517,58.637,37.738,58.557,37.931z M59.43,32.64c-0.012,0-0.023,0-0.035,0c-0.209-0.019-0.361-0.203-0.342-0.41
		c0.053-0.603,0.088-1.231,0.105-1.87c0.008-0.209,0.192-0.369,0.393-0.369c0.208,0.007,0.372,0.181,0.366,0.391
		c-0.019,0.654-0.056,1.297-0.11,1.915C59.788,32.494,59.624,32.64,59.43,32.64z M59.553,28.856c-0.002,0-0.006,0-0.008,0
		c-0.207,0-0.375-0.167-0.379-0.37c-0.014-0.609-0.039-1.242-0.078-1.877c-0.016-0.209,0.144-0.388,0.354-0.403
		c0.206-0.008,0.389,0.144,0.4,0.356c0.041,0.646,0.068,1.287,0.081,1.907C59.928,28.677,59.761,28.851,59.553,28.856z
		 M59.772,5.506c0.622-0.015,1.251-0.032,1.89-0.057c0.005,0,0.008,0,0.014,0c0.202,0,0.372,0.163,0.378,0.366
		c0.006,0.209-0.156,0.384-0.364,0.394c-0.642,0.023-1.274,0.041-1.898,0.055c-0.003,0-0.009,0-0.011,0
		c-0.203,0-0.373-0.164-0.379-0.369C59.397,5.685,59.561,5.511,59.772,5.506z M59.479,22.765c0.08,0.648,0.154,1.285,0.211,1.894
		c0.021,0.207-0.131,0.394-0.339,0.414c-0.013,0.001-0.026,0.002-0.038,0.002c-0.191,0-0.357-0.148-0.376-0.343
		c-0.058-0.6-0.128-1.229-0.208-1.871c-0.026-0.208,0.121-0.397,0.326-0.424C59.262,22.415,59.454,22.558,59.479,22.765z
		 M59.221,20.879c0.029,0.207-0.113,0.4-0.32,0.431c-0.02,0.002-0.036,0.003-0.057,0.003c-0.184,0-0.344-0.136-0.373-0.323
		c-0.068-0.463-0.133-0.889-0.193-1.275c-0.176-0.026-0.315-0.173-0.324-0.358c-0.01-0.21,0.154-0.385,0.363-0.396l0.584-0.024
		C58.901,18.937,59.151,20.398,59.221,20.879z M58.413,18.004c0.01,0.209-0.152,0.386-0.362,0.394
		c-0.649,0.03-1.28,0.052-1.899,0.071c-0.002,0-0.008,0-0.01,0c-0.204,0-0.373-0.162-0.379-0.369
		c-0.007-0.21,0.158-0.383,0.368-0.39c0.612-0.017,1.243-0.04,1.888-0.07C58.222,17.639,58.405,17.795,58.413,18.004z M56.45,19.79
		c-0.649,0.019-1.283,0.035-1.896,0.042c-0.005,0-0.006,0-0.006,0h-0.002c-0.207,0-0.375-0.167-0.379-0.373
		c-0.002-0.208,0.164-0.381,0.373-0.385c0.611-0.01,1.242-0.022,1.889-0.044c0.203-0.007,0.385,0.16,0.389,0.369
		C56.824,19.607,56.661,19.782,56.45,19.79z M56.54,41.269c-0.441,0.493-0.936,0.935-1.467,1.317
		c-0.066,0.047-0.145,0.07-0.221,0.07c-0.121,0-0.234-0.055-0.31-0.156c-0.12-0.171-0.083-0.407,0.087-0.528
		c0.488-0.351,0.943-0.757,1.348-1.208c0.139-0.158,0.379-0.17,0.533-0.03C56.667,40.874,56.68,41.113,56.54,41.269z M52.858,18.518
		h-0.512c-0.208-0.002-0.375-0.171-0.373-0.38c0.001-0.209,0.169-0.386,0.38-0.377l0.505,0.001c0.447,0,0.91-0.002,1.383-0.01
		c0.001,0,0.003,0,0.005,0c0.206,0,0.376,0.168,0.38,0.375c0.002,0.208-0.164,0.38-0.375,0.384
		C53.775,18.516,53.311,18.518,52.858,18.518z M55.991,5.548h0.361c0.502,0,1.012-0.003,1.531-0.008
		c0.217,0.01,0.379,0.165,0.381,0.374c0.002,0.208-0.164,0.38-0.373,0.383c-0.52,0.004-1.032,0.009-1.539,0.009h-0.361
		c-0.21,0-0.378-0.172-0.378-0.383C55.613,5.716,55.782,5.548,55.991,5.548z M52.216,5.484c0.614,0.02,1.246,0.034,1.888,0.047
		c0.207,0.002,0.376,0.175,0.371,0.383c-0.002,0.208-0.172,0.374-0.376,0.374c-0.005,0-0.005,0-0.007,0
		c-0.648-0.011-1.281-0.027-1.9-0.047c-0.211-0.007-0.374-0.182-0.367-0.39C51.833,5.641,52.022,5.474,52.216,5.484z M53.992,9.876
		c0.909,0.012,1.644,0.545,1.91,1.14c0.905,0.187,2.314,0.679,2.268,1.271c-0.027,0.334-0.338,0.707-2.229,0.823
		c0.012-0.021,0.014-0.047,0.023-0.069c-0.363,0.765-1.145,1.292-2.04,1.277c-1.227-0.019-2.21-1.032-2.189-2.257
		C51.755,10.84,52.767,9.855,53.992,9.876z M50.836,18.118c-0.008,0.204-0.174,0.369-0.378,0.369c-0.005,0-0.007,0-0.013,0
		c-0.675-0.023-1.317-0.052-1.905-0.09c-0.209-0.014-0.368-0.195-0.354-0.403c0.013-0.208,0.2-0.368,0.404-0.353
		c0.579,0.039,1.211,0.067,1.879,0.088C50.676,17.734,50.841,17.908,50.836,18.118z M46.708,12.298
		c0.202-0.01,0.388,0.148,0.399,0.356c0.036,0.646,0.076,1.282,0.119,1.886c0.014,0.207-0.143,0.389-0.351,0.406
		c-0.009,0-0.02,0-0.027,0c-0.197,0-0.364-0.153-0.378-0.353c-0.042-0.608-0.082-1.247-0.119-1.898
		C46.342,12.487,46.499,12.31,46.708,12.298z M46.264,10.794c-0.024-0.649-0.042-1.291-0.049-1.903
		c-0.002-0.208,0.165-0.38,0.375-0.382h0.003c0.208,0,0.377,0.165,0.38,0.373c0.007,0.607,0.024,1.244,0.047,1.885
		c0.009,0.209-0.154,0.385-0.363,0.392c-0.005,0-0.01,0-0.015,0C46.439,11.159,46.271,11.001,46.264,10.794z M48.509,19.39
		c-0.022-0.207,0.129-0.393,0.339-0.415c0.21-0.019,0.393,0.131,0.414,0.338c0.057,0.561,0.114,1.197,0.172,1.896
		c0.015,0.209-0.142,0.394-0.349,0.408c-0.011,0.001-0.021,0.001-0.031,0.001c-0.197,0-0.361-0.151-0.376-0.348
		C48.62,20.578,48.564,19.947,48.509,19.39z M48.033,16.829c-0.069-0.613-0.13-1.252-0.179-1.9c-0.015-0.209,0.14-0.389,0.349-0.405
		c0.206-0.017,0.391,0.14,0.407,0.349c0.048,0.638,0.107,1.267,0.176,1.87c0.024,0.209-0.126,0.397-0.335,0.419
		c-0.012,0.003-0.029,0.003-0.041,0.003C48.217,17.165,48.053,17.022,48.033,16.829z M48.931,25.045
		c-0.037-0.657-0.076-1.288-0.118-1.89c-0.013-0.209,0.145-0.388,0.353-0.403c0.214-0.007,0.391,0.144,0.404,0.353
		c0.041,0.604,0.081,1.237,0.117,1.895c0.013,0.208-0.146,0.387-0.354,0.398c-0.01,0.003-0.017,0.003-0.024,0.003
		C49.111,25.401,48.942,25.246,48.931,25.045z M49.393,26.536c0.198-0.017,0.387,0.15,0.398,0.359
		c0.031,0.62,0.061,1.253,0.088,1.896c0.009,0.209-0.152,0.384-0.361,0.394c-0.006,0-0.013,0-0.017,0
		c-0.202,0-0.369-0.159-0.379-0.362c-0.026-0.641-0.057-1.274-0.088-1.889C49.023,26.726,49.184,26.545,49.393,26.536z
		 M49.562,30.323c0.199-0.012,0.386,0.156,0.392,0.363c0.023,0.626,0.046,1.261,0.064,1.897c0.006,0.208-0.158,0.383-0.367,0.387
		c-0.005,0-0.008,0-0.013,0c-0.204,0-0.373-0.162-0.378-0.365c-0.019-0.633-0.041-1.266-0.062-1.892
		C49.191,30.505,49.354,30.33,49.562,30.323z M49.68,34.112c0.003,0,0.006,0,0.007,0c0.207,0,0.376,0.162,0.381,0.368
		c0.015,0.635,0.025,1.269,0.037,1.896c0.003,0.211-0.165,0.383-0.373,0.386c-0.003,0-0.005,0-0.005,0
		c-0.209,0-0.378-0.166-0.381-0.373c-0.01-0.627-0.022-1.259-0.037-1.893C49.305,34.289,49.471,34.117,49.68,34.112z M48.447,5.293
		c0.612,0.044,1.239,0.081,1.882,0.112c0.21,0.012,0.37,0.189,0.36,0.398c-0.01,0.201-0.177,0.361-0.378,0.361
		c-0.008,0-0.013,0-0.019-0.001c-0.65-0.033-1.284-0.073-1.898-0.114c-0.209-0.018-0.366-0.197-0.351-0.406
		C48.057,5.435,48.229,5.278,48.447,5.293z M47.732,7.312c0.009-0.209,0.197-0.364,0.396-0.363c0.206,0.009,0.371,0.187,0.361,0.396
		c-0.028,0.628-0.043,1.26-0.052,1.882C48.436,9.432,48.267,9.6,48.059,9.6c-0.002,0-0.004,0-0.004,0
		c-0.208-0.003-0.375-0.175-0.374-0.384C47.689,8.587,47.707,7.947,47.732,7.312z M48.055,10.737c0.002,0,0.004,0,0.008,0
		c0.205,0,0.373,0.166,0.378,0.374c0.009,0.626,0.027,1.26,0.054,1.881c0.009,0.209-0.151,0.386-0.36,0.396
		c-0.005,0-0.011,0-0.018,0c-0.202,0-0.369-0.16-0.378-0.361c-0.027-0.629-0.047-1.272-0.057-1.905
		C47.679,10.914,47.846,10.74,48.055,10.737z M44.954,17.457c-0.022,0.195-0.187,0.337-0.376,0.337
		c-0.015,0-0.029-0.001-0.044-0.002c-0.618-0.07-1.247-0.14-1.887-0.215c-0.207-0.024-0.357-0.213-0.331-0.419
		c0.025-0.207,0.216-0.361,0.419-0.334c0.639,0.074,1.266,0.145,1.883,0.216C44.826,17.061,44.976,17.249,44.954,17.457z
		 M42.466,4.951C43.111,5,43.74,5.04,44.354,5.075c0.209,0.012,0.369,0.192,0.355,0.4c-0.011,0.203-0.178,0.358-0.377,0.358
		c-0.007,0-0.014,0-0.021-0.003c-0.619-0.034-1.251-0.076-1.897-0.123c-0.209-0.014-0.368-0.196-0.352-0.405
		C42.077,5.094,42.263,4.941,42.466,4.951z M41.185,17.025c-0.022,0.191-0.186,0.333-0.376,0.333c-0.013,0-0.03-0.001-0.044-0.004
		c-0.622-0.073-1.25-0.148-1.884-0.227c-0.208-0.026-0.356-0.215-0.329-0.421c0.023-0.208,0.206-0.356,0.42-0.331
		c0.634,0.076,1.262,0.153,1.881,0.226C41.062,16.628,41.209,16.816,41.185,17.025z M38.693,4.643
		c0.637,0.059,1.267,0.113,1.887,0.164c0.207,0.017,0.363,0.199,0.346,0.408c-0.017,0.197-0.181,0.347-0.377,0.347
		c-0.011,0-0.021,0-0.031-0.001c-0.622-0.05-1.254-0.105-1.893-0.163c-0.208-0.02-0.362-0.204-0.341-0.413
		C38.3,4.777,38.482,4.628,38.693,4.643z M37.421,16.565c-0.024,0.191-0.187,0.329-0.375,0.329c-0.016,0-0.032,0-0.047-0.001
		c-0.625-0.079-1.253-0.158-1.882-0.239c-0.209-0.026-0.355-0.216-0.328-0.425c0.026-0.206,0.215-0.356,0.424-0.327
		c0.629,0.082,1.257,0.16,1.879,0.238C37.299,16.167,37.447,16.356,37.421,16.565z M34.924,4.272
		c0.632,0.067,1.261,0.131,1.886,0.192c0.206,0.019,0.359,0.206,0.338,0.413c-0.019,0.196-0.183,0.343-0.375,0.343
		c-0.013,0-0.025,0-0.037-0.002c-0.626-0.061-1.256-0.126-1.89-0.194c-0.208-0.02-0.358-0.207-0.336-0.415
		C34.531,4.403,34.716,4.249,34.924,4.272z M33.659,16.083c-0.024,0.192-0.188,0.329-0.376,0.329c-0.014,0-0.032,0-0.048-0.002
		c-0.627-0.083-1.254-0.166-1.883-0.249c-0.207-0.028-0.354-0.217-0.325-0.427c0.025-0.207,0.219-0.351,0.427-0.323
		c0.626,0.083,1.253,0.166,1.879,0.247C33.54,15.685,33.686,15.875,33.659,16.083z M31.161,3.853
		c0.628,0.074,1.254,0.146,1.881,0.216c0.208,0.022,0.356,0.208,0.336,0.417c-0.024,0.195-0.187,0.337-0.379,0.337
		c-0.013,0-0.027,0-0.041-0.003c-0.626-0.069-1.255-0.139-1.887-0.216c-0.207-0.023-0.353-0.211-0.331-0.42
		C30.767,3.978,30.953,3.826,31.161,3.853z M29.899,15.582c-0.027,0.19-0.189,0.33-0.375,0.33c-0.018,0-0.035-0.003-0.052-0.006
		c-0.628-0.085-1.253-0.17-1.876-0.256c-0.208-0.028-0.35-0.222-0.323-0.426c0.027-0.209,0.212-0.351,0.428-0.324
		c0.621,0.087,1.247,0.172,1.875,0.256C29.782,15.185,29.926,15.376,29.899,15.582z M27.4,3.393c0.624,0.08,1.251,0.157,1.881,0.234
		c0.206,0.026,0.353,0.216,0.329,0.422c-0.024,0.191-0.186,0.334-0.376,0.334c-0.015,0-0.032-0.002-0.046-0.005
		c-0.629-0.076-1.258-0.155-1.882-0.236c-0.208-0.026-0.355-0.215-0.329-0.423C27.003,3.512,27.192,3.363,27.4,3.393z
		 M26.146,15.063c-0.027,0.192-0.189,0.329-0.376,0.329c-0.015,0-0.035-0.001-0.051-0.004c-0.632-0.089-1.259-0.177-1.879-0.267
		c-0.208-0.03-0.351-0.221-0.321-0.429c0.03-0.207,0.215-0.352,0.429-0.323c0.621,0.091,1.248,0.179,1.877,0.27
		C26.031,14.667,26.175,14.858,26.146,15.063z M23.644,2.891c0.62,0.088,1.247,0.172,1.877,0.254
		c0.208,0.029,0.354,0.219,0.327,0.428c-0.026,0.19-0.189,0.329-0.376,0.329c-0.018,0-0.033-0.003-0.048-0.003
		c-0.633-0.086-1.261-0.169-1.882-0.255c-0.206-0.03-0.352-0.221-0.325-0.427C23.246,3.008,23.436,2.862,23.644,2.891z
		 M22.391,14.528c-0.026,0.189-0.188,0.324-0.373,0.324c-0.02,0-0.037-0.001-0.056-0.005c-0.636-0.093-1.261-0.184-1.878-0.277
		c-0.206-0.03-0.349-0.224-0.317-0.43c0.029-0.206,0.224-0.352,0.43-0.319c0.615,0.094,1.241,0.184,1.875,0.277
		C22.278,14.128,22.423,14.322,22.391,14.528z M19.894,2.355c0.615,0.091,1.24,0.182,1.875,0.273
		c0.206,0.029,0.352,0.222,0.32,0.428c-0.025,0.188-0.187,0.325-0.374,0.325c-0.019,0-0.037-0.002-0.054-0.004
		c-0.636-0.09-1.263-0.182-1.877-0.273c-0.208-0.031-0.351-0.223-0.321-0.43C19.494,2.468,19.686,2.327,19.894,2.355z
		 M18.639,13.971c-0.027,0.188-0.189,0.32-0.374,0.32c-0.018,0-0.037-0.001-0.057-0.004c-0.639-0.097-1.266-0.192-1.877-0.289
		c-0.207-0.033-0.347-0.226-0.316-0.433c0.034-0.206,0.228-0.348,0.434-0.317c0.609,0.096,1.232,0.194,1.872,0.289
		C18.529,13.568,18.673,13.765,18.639,13.971z M16.15,1.776c0.605,0.098,1.228,0.197,1.87,0.295
		c0.208,0.033,0.349,0.227,0.316,0.433c-0.027,0.189-0.189,0.322-0.374,0.322c-0.018,0-0.039-0.004-0.058-0.006
		c-0.643-0.098-1.269-0.196-1.876-0.296c-0.207-0.031-0.346-0.226-0.315-0.434C15.75,1.884,15.938,1.741,16.15,1.776z
		 M14.891,13.389c-0.03,0.185-0.19,0.316-0.372,0.316c-0.022,0-0.042,0-0.062-0.005c-0.648-0.102-1.272-0.206-1.875-0.304
		c-0.207-0.035-0.345-0.228-0.311-0.438c0.035-0.205,0.225-0.346,0.437-0.311c0.598,0.1,1.223,0.203,1.869,0.306
		C14.786,12.986,14.925,13.18,14.891,13.389z M12.415,1.145c0.59,0.105,1.213,0.215,1.866,0.324
		c0.208,0.035,0.345,0.231,0.312,0.437C14.561,2.09,14.4,2.224,14.219,2.224c-0.02,0-0.042-0.003-0.064-0.008
		c-0.656-0.11-1.281-0.218-1.872-0.326c-0.207-0.035-0.342-0.235-0.306-0.438C12.012,1.245,12.211,1.109,12.415,1.145z
		 M11.147,12.769c-0.03,0.184-0.191,0.312-0.371,0.312c-0.022,0-0.044-0.001-0.067-0.005c-0.667-0.114-1.292-0.226-1.87-0.334
		c-0.205-0.039-0.343-0.234-0.304-0.439c0.037-0.207,0.234-0.343,0.441-0.305c0.577,0.107,1.198,0.217,1.865,0.333
		C11.045,12.366,11.184,12.563,11.147,12.769z M8.258,0.706C8.302,0.5,8.505,0.372,8.708,0.417c0.53,0.118,1.152,0.246,1.849,0.38
		c0.204,0.043,0.338,0.241,0.299,0.445C10.82,1.425,10.664,1.55,10.485,1.55c-0.025,0-0.049-0.002-0.074-0.007
		C9.71,1.407,9.081,1.277,8.545,1.157C8.339,1.113,8.211,0.91,8.258,0.706z M6.796,3.926c0.206-0.659,0.41-1.268,0.609-1.813
		C7.477,1.917,7.695,1.815,7.89,1.888c0.196,0.069,0.299,0.29,0.227,0.484C7.921,2.907,7.72,3.505,7.519,4.152
		c-0.05,0.162-0.202,0.266-0.363,0.266c-0.035,0-0.075-0.006-0.111-0.016C6.843,4.339,6.732,4.126,6.796,3.926z M5.756,7.589
		c0.16-0.619,0.327-1.236,0.495-1.836c0.058-0.2,0.267-0.318,0.468-0.262c0.201,0.057,0.319,0.266,0.263,0.467
		c-0.17,0.597-0.334,1.207-0.494,1.82C6.445,7.951,6.292,8.062,6.125,8.062c-0.035,0-0.065-0.004-0.099-0.011
		C5.825,8,5.702,7.792,5.756,7.589z M4.828,11.484c0.008-0.03,0.32-1.42,0.47-2.048C5.346,9.233,5.55,9.107,5.754,9.154
		c0.203,0.052,0.329,0.254,0.28,0.458c-0.137,0.574-0.268,1.146-0.394,1.697c0.392,0.098,0.888,0.208,1.479,0.329
		c0.206,0.042,0.336,0.242,0.295,0.447c-0.037,0.179-0.194,0.304-0.371,0.304c-0.025,0-1.509-0.318-1.951-0.439
		C4.889,11.896,4.771,11.688,4.828,11.484z M25.406,281.424c-0.061,0.161-0.216,0.256-0.378,0.244
		c-0.037-0.006-1.324-0.531-1.875-0.817c-0.187-0.097-0.261-0.323-0.164-0.508c0.095-0.186,0.326-0.259,0.51-0.161
		c0.528,0.27,1.096,0.525,1.69,0.755C25.385,281.013,25.482,281.229,25.406,281.424z M28.786,282.362c-0.015,0-0.026,0-0.042-0.002
		c-0.636-0.071-1.277-0.173-1.905-0.297c-0.206-0.041-0.339-0.242-0.297-0.447c0.042-0.204,0.241-0.335,0.447-0.297
		c0.604,0.124,1.222,0.22,1.835,0.289c0.208,0.021,0.359,0.209,0.337,0.417C29.143,282.221,28.979,282.362,28.786,282.362z
		 M32.602,282.408c-0.547,0.048-1.931,0.073-1.931,0.073c-0.209-0.002-0.375-0.179-0.375-0.387c0.005-0.206,0.175-0.372,0.381-0.372
		h0.005c0,0,1.327-0.023,1.853-0.072c0.217-0.01,0.393,0.14,0.412,0.348S32.809,282.387,32.602,282.408z M36.393,281.628
		c-0.6,0.2-1.928,0.51-1.95,0.51c-0.176,0-0.335-0.121-0.371-0.302c-0.042-0.206,0.091-0.407,0.295-0.448
		c0.612-0.126,1.212-0.288,1.783-0.479c0.197-0.064,0.412,0.042,0.479,0.241C36.696,281.349,36.59,281.562,36.393,281.628z
		 M39.856,279.869c-0.523,0.372-1.782,1.05-1.839,1.05c-0.139,0-0.272-0.079-0.339-0.206c-0.095-0.191-0.019-0.42,0.167-0.51
		c0.55-0.281,1.079-0.599,1.57-0.952c0.171-0.116,0.408-0.08,0.528,0.09C40.067,279.512,40.027,279.75,39.856,279.869z
		 M42.031,74.725c-3.988,25.002-4.372,74.773-4.625,107.708c-0.086,11.146-0.154,19.949-0.347,24.591
		c-0.439,10.551-0.409,23.891-0.377,38.014c0.022,9.771,0.045,19.853-0.084,29.663c-1.793,1.066-3.868,1.318-5.43,1.318
		c-2.047,0-3.87-0.416-5.231-0.932c-0.964-12.358-3.798-39.812-6.695-57.191c-1.585-9.516-1.673-21.571-1.766-34.334
		c-0.082-11.229-0.166-22.839-1.226-34.322c-2.168-23.473-4.095-41.868-9.17-64.896c-3.514-15.949-3.79-35.93-2.118-52.339
		c8.042-0.821,14.148-6.22,16.574-12.208c3.476,0.472,7.167,0.905,10.919,1.31c2.616,0.65,5.104,1.232,6.04,1.544
		c1.706,0.57,2.688,2.007,4.015,2.007c1.327,0-0.258,1.479-0.606,3.354c-0.225,1.214,1.717,1.651,2.058,2.877
		c0.345,1.23,0.8,4.994,1.055,8.301C44.896,51.992,43.556,65.163,42.031,74.725z M45.849,5.533c0.009-0.206,0.191-0.366,0.393-0.36
		l0.872,0.033l-0.042,0.403c-0.041,0.386-0.069,0.854-0.088,1.396c-0.005,0.204-0.172,0.366-0.378,0.366c-0.004,0-0.008,0-0.009,0
		c-0.211-0.006-0.375-0.181-0.369-0.391c0.012-0.383,0.029-0.734,0.054-1.049L46.21,5.928C46.001,5.92,45.839,5.742,45.849,5.533z
		 M46.085,17.582c0.021-0.208,0.206-0.36,0.417-0.338l0.187,0.02c-0.022-0.238-0.047-0.5-0.069-0.775
		c-0.02-0.208,0.136-0.393,0.344-0.41c0.21-0.024,0.391,0.135,0.411,0.347c0.04,0.456,0.079,0.871,0.115,1.227l0.05,0.464
		l-1.118-0.118C46.213,17.976,46.062,17.789,46.085,17.582z M48.556,60.5c-0.017,0.197-0.181,0.345-0.376,0.345
		c-0.01,0-0.022,0-0.034-0.002c-0.142-0.013-0.252-0.104-0.306-0.225c0.096-0.989,0.188-1.981,0.273-2.982
		c0.07-0.116,0.18-0.204,0.328-0.193c0.21,0.018,0.364,0.2,0.349,0.409C48.716,58.73,48.637,59.618,48.556,60.5z M49,55.202
		c-0.016,0.199-0.181,0.349-0.378,0.349c-0.01,0-0.019,0-0.028,0c-0.146-0.01-0.242-0.115-0.294-0.242
		c0.076-0.996,0.145-1.996,0.209-2.999c0.071-0.105,0.188-0.175,0.332-0.162c0.209,0.014,0.366,0.193,0.353,0.402
		C49.133,53.403,49.067,54.293,49,55.202z M49.372,49.901c-0.012,0.199-0.178,0.355-0.378,0.355c-0.008,0-0.015-0.002-0.025-0.002
		c-0.147-0.01-0.266-0.105-0.32-0.232c0.053-0.951,0.103-1.903,0.144-2.856c0.032-0.188,0.199-0.328,0.392-0.318
		c0.209,0.013,0.367,0.193,0.354,0.402C49.493,48.02,49.438,48.917,49.372,49.901z M50.07,43.973
		c-0.007,0.206-0.175,0.367-0.378,0.367c-0.005,0-0.007,0-0.012,0c-0.208-0.005-0.375-0.181-0.366-0.39
		c0.016-0.607,0.032-1.237,0.042-1.886c0.003-0.208,0.172-0.374,0.378-0.374c0.003,0,0.005,0,0.006,0
		c0.209,0.003,0.375,0.174,0.373,0.381C50.104,42.729,50.089,43.363,50.07,43.973z M50.131,40.174c0,0.211-0.171,0.377-0.38,0.377
		H49.75c-0.208,0-0.377-0.17-0.377-0.378v-0.527c0-0.449,0-0.905-0.005-1.364c0-0.209,0.167-0.379,0.376-0.381h0.002
		c0.208,0,0.379,0.167,0.38,0.375c0.003,0.462,0.005,0.919,0.005,1.37V40.174z M50.38,19.422c0.006-0.207,0.177-0.378,0.389-0.368
		c0.598,0.017,1.228,0.028,1.884,0.03c0.209,0,0.379,0.172,0.377,0.381c-0.001,0.209-0.17,0.378-0.379,0.378
		c-0.664-0.005-1.3-0.015-1.905-0.032C50.537,19.807,50.373,19.631,50.38,19.422z M51.412,44.19c-0.169,0-0.324-0.114-0.366-0.289
		c-0.047-0.204,0.076-0.409,0.278-0.458c0.612-0.144,1.195-0.34,1.733-0.578c0.188-0.083,0.412,0.002,0.498,0.194
		c0.084,0.192-0.004,0.414-0.194,0.499c-0.578,0.254-1.204,0.464-1.857,0.622C51.474,44.19,51.443,44.19,51.412,44.19z
		 M56.251,280.344c-0.05,0.164-0.2,0.271-0.362,0.271c-0.035,0-0.074-0.002-0.109-0.016c-0.648-0.198-1.262-0.418-1.82-0.664
		c-0.191-0.077-0.282-0.302-0.198-0.495c0.083-0.191,0.308-0.281,0.498-0.196c0.534,0.229,1.12,0.441,1.741,0.631
		C56.2,279.934,56.313,280.147,56.251,280.344z M59.59,281.4c-0.014,0-0.033,0-0.049-0.002c-0.646-0.09-1.285-0.197-1.896-0.326
		c-0.206-0.042-0.335-0.242-0.292-0.448c0.045-0.206,0.244-0.335,0.448-0.292c0.595,0.121,1.211,0.227,1.839,0.314
		c0.207,0.028,0.354,0.219,0.326,0.426C59.942,281.262,59.778,281.4,59.59,281.4z M63.37,281.643h-0.099
		c-0.604,0-1.216-0.015-1.819-0.057c-0.209-0.013-0.366-0.191-0.354-0.399c0.015-0.212,0.182-0.365,0.403-0.354
		c0.589,0.037,1.184,0.055,1.771,0.055h0.099c0.209,0,0.379,0.168,0.379,0.377C63.749,281.477,63.579,281.643,63.37,281.643z
		 M67.202,281.354c-0.613,0.094-1.258,0.17-1.912,0.219c-0.01,0-0.021,0-0.027,0c-0.197,0-0.363-0.152-0.379-0.354
		c-0.016-0.205,0.143-0.387,0.352-0.401c0.635-0.047,1.256-0.117,1.85-0.209c0.211-0.03,0.401,0.107,0.433,0.312
		C67.549,281.13,67.409,281.319,67.202,281.354z M70.938,280.356c-0.566,0.234-1.188,0.438-1.846,0.605
		c-0.032,0.011-0.064,0.013-0.094,0.013c-0.169,0-0.322-0.109-0.368-0.283c-0.052-0.197,0.067-0.409,0.271-0.463
		c0.626-0.16,1.216-0.354,1.752-0.574c0.193-0.075,0.415,0.013,0.493,0.211C71.225,280.058,71.131,280.279,70.938,280.356z
		 M76.023,204.294c0.653,8.062-2.026,27.189-4.391,44.065c-1.426,10.178-2.781,19.851-3.384,26.793
		c-1.326,0.387-3.021,0.604-4.854,0.604c-2.273,0-4.565-0.347-6.309-0.917c0.367-8.441,0.785-18.851,0.785-32.607
		c0-45.703,0.254-76.375,0.754-91.161c0.521-15.371-0.354-37.454-0.994-53.578c-0.289-7.299-0.518-13.063-0.518-15.884
		c0-7.219,0-15.258-5.523-18.751c0.655-6.385,1.07-12.682,1.245-18.684c8.375-3.026,7.919-14.414,7.019-21.48
		c5.684-0.306,12.34-0.96,19.258-1.996c2.564,6.124,8.886,11.8,17.072,12.523c1.555,27.557-4.844,64.651-9.838,85.728
		C83.131,132.521,74.812,189.351,76.023,204.294z"/>
</g>
</svg>
