<?xml version="1.0" encoding="utf-8"?>
<!-- Generator: Adobe Illustrator 15.1.0, SVG Export Plug-In . SVG Version: 6.00 Build 0)  -->
<!DOCTYPE svg PUBLIC "-//W3C//DTD SVG 1.1//EN" "http://www.w3.org/Graphics/SVG/1.1/DTD/svg11.dtd">
<svg version="1.1" id="Layer_1" xmlns="http://www.w3.org/2000/svg" xmlns:xlink="http://www.w3.org/1999/xlink" x="0px" y="0px"
	 width="227.035px" height="307.582px" viewBox="0 0 227.035 307.582" enable-background="new 0 0 227.035 307.582"
	 xml:space="preserve">
<g>
	<path fill="#333333" d="M163.304,92.22l34.457-41.248L157.691,0H77.566L37.501,50.973l32.71,38.2C29.044,106.2,0,146.8,0,194.085
		c0,62.601,50.9,113.5,113.5,113.497c62.602,0,113.52-50.91,113.52-113.497C227.035,149.4,201,110.7,163.3,92.22H163.304z
		 M113.515,276.904c-45.674,0-82.828-37.146-82.828-82.819c0-45.682,37.154-82.828,82.828-82.828c45.67,0,82.8,37.1,82.8,82.828
		c0.034,45.715-37.114,82.815-82.815,82.819H113.515z"/>
	<polygon fill="#FFFFFF" points="141.8,13.9 165.9,49.9 141.8,49.9 	"/>
	<polygon fill="#FFFFFF" points="88.9,86 60.6,47.9 84.8,47.9 	"/>
</g>
</svg>
