<svg xmlns="http://www.w3.org/2000/svg" xmlns:xlink="http://www.w3.org/1999/xlink" version="1.1" id="Layer_1" x="0px" y="0px" width="182.347px" height="258.057px" viewBox="0 0 182.347 258.057" enable-background="new 0 0 182.347 258.057" xml:space="preserve"><style>.style0{fill:	#333333;}</style><g><path d="M177.182 227.736c-1.108-1.923-1.178-2.042 0.379-6.322c2.572-0.918 4.786-2.557 4.786-2.557 s-0.578-69.295-1.798-83.314c-1.156-13.308-0.033-49.618 1.186-58.139c0.854-5.991-6.85-19.988-10.201-25.728 c-6.555-11.225-14.111-20.548-18.429-24.684C141.136 15.5 90.4 5.2 90.4 5.184c-4.17-0.953-8.215-1.416-12.37-1.416 c-9.687 0-17.956 2.559-25.954 5.034c-4.479 1.386-8.708 2.694-13.074 3.535c-10.03 1.928-19.504 18.431-24.261 28.1 C7.918 54.2 2.5 70.6 1.3 81.171c-1.602 13.615-1.764 28.707-0.105 41.862c1.051 8.3 1.9 98.4 1.9 98.412h4.736 c0.107 3 0.7 5.9 1.2 8.68c0.91 4.6 1.7 8.5 0.1 11.699c-0.935 1.869-1.767 3.352-2.436 4.5 c-1.511 2.688-2.507 4.465-2.507 6.914h3.187c0-1.615 0.7-2.864 2.098-5.354c0.687-1.221 1.54-2.741 2.51-4.68 c2.074-4.147 1.146-8.811 0.163-13.744c-0.521-2.622-1.056-5.322-1.165-8.059h2.184c0.107 3 0.7 5.9 1.2 8.7 c0.909 4.6 1.7 8.5 0.1 11.699c-0.936 1.869-1.769 3.352-2.438 4.543c-1.51 2.688-2.508 4.465-2.508 6.914h3.188 c0-1.615 0.701-2.864 2.099-5.354c0.687-1.221 1.538-2.741 2.509-4.68c2.073-4.147 1.146-8.811 0.164-13.744 c-0.522-2.622-1.058-5.322-1.167-8.059c2.118 0 4.3 0 6.5 0.053c-1.399 2.949-1.222 4.03-0.257 6.5 c0.385 1 0.9 2.2 1.4 4.184c1.052 4.2 0.1 8.543-0.819 12.367c-0.524 2.285-1.019 4.445-1.019 6.35h3.187 c0-1.545 0.456-3.531 0.939-5.637c0.909-3.967 2.041-8.904 0.805-13.854c-0.542-2.164-1.086-3.555-1.482-4.57 c-0.735-1.885-0.844-2.158 0.788-5.211c0.599 0 1.2 0.1 1.8 0.113c-1.278 2.771-1.084 3.86-0.146 6.3 c0.385 1 0.9 2.2 1.4 4.184c1.053 4.2 0.1 8.543-0.819 12.367c-0.523 2.285-1.019 4.445-1.019 6.35h3.188 c0-1.545 0.456-3.531 0.938-5.637c0.91-3.967 2.043-8.904 0.806-13.854c-0.541-2.164-1.086-3.555-1.481-4.57 c-0.697-1.781-0.829-2.127 0.538-4.738c0.928 0.1 1.8 0.3 2.6 0.496c1.915 0.5 3 0.7 4 0.7 c-1.079 2.486-0.858 3.6 0 5.861c0.386 1 0.9 2.2 1.4 4.183c1.054 4.2 0.1 8.543-0.818 12.4 c-0.524 2.284-1.02 4.443-1.02 6.348h3.187c0-1.544 0.456-3.531 0.938-5.636c0.909-3.968 2.043-8.905 0.806-13.854 c-0.541-2.164-1.084-3.555-1.483-4.571c-0.738-1.89-0.843-2.161 0.809-5.245c0.331-0.051 0.696-0.103 1.118-0.154 c0.275-0.035 0.551-0.074 0.824-0.116c-1.493 3.087-1.328 4.162-0.346 6.677c0.387 1 0.9 2.2 1.4 4.2 c1.052 4.2 0.1 8.543-0.819 12.37c-0.523 2.284-1.019 4.443-1.019 6.348h3.187c0-1.544 0.456-3.531 0.938-5.636 c0.91-3.968 2.042-8.905 0.805-13.854c-0.541-2.164-1.085-3.555-1.482-4.571c-0.811-2.072-0.858-2.196 1.335-6.218l-0.143-0.078 c0.718-0.175 1.425-0.357 2.127-0.537c0.713-0.186 1.437-0.371 2.17-0.55c-1.227 2.698-1.024 3.788-0.101 6.2 c0.388 1 0.9 2.2 1.4 4.185c1.052 4.2 0.1 8.544-0.819 12.369c-0.523 2.284-1.02 4.444-1.02 6.347h3.188 c0-1.543 0.456-3.531 0.938-5.635c0.909-3.969 2.043-8.906 0.805-13.854c-0.541-2.164-1.085-3.555-1.482-4.571 c-0.781-2-0.854-2.187 1.112-5.806c0.456-0.07 0.916-0.137 1.388-0.188c0.176-0.021 0.347-0.041 0.518-0.062 c-1.778 3.512-1.65 4.561-0.612 7.215c0.385 1 0.9 2.2 1.4 4.185c1.052 4.2 0.1 8.544-0.819 12.4 c-0.524 2.284-1.019 4.444-1.019 6.347h3.186c0-1.543 0.457-3.531 0.939-5.635c0.909-3.969 2.041-8.906 0.804-13.854 c-0.541-2.164-1.134-3.538-1.481-4.571c-1.31-3.903 1.458-6.63 1.796-6.688c-0.943 3.126-0.602 4.2 0.7 6.5 c0.529 0.9 1.2 2.1 2 3.935c1.671 4 1.3 8.4 1 12.352c-0.175 2.338-0.341 4.546-0.055 6.428l3.151-0.477 c-0.232-1.525-0.079-3.561 0.082-5.713c0.303-4.061 0.683-9.111-1.283-13.818c-0.859-2.059-1.604-3.354-2.15-4.299 c-1.028-1.78-1.162-2.016 0.061-5.443c0.656-0.099 1.354-0.195 2.107-0.291c-1.269 3.82-0.994 4.8 0.4 7.3 c0.53 0.9 1.2 2.1 2 3.935c1.671 4 1.3 8.4 1 12.352c-0.176 2.338-0.341 4.546-0.056 6.428l1.527 1.2 c-0.233-1.526 1.545-5.215 1.706-7.367c0.304-4.061 0.683-9.111-1.283-13.818c-0.858-2.059-1.604-3.354-2.151-4.299 c-1.09-1.891-1.174-2.04 0.303-6.113c1.801-0.164 8.329-0.535 8.329-0.535s-14.438-66.473-16.447-83.597 c1.932 1.3 3.8 2.3 5.5 2.985c5.805 2.4 18.3 4.8 31 4.809c6.857 0 16.395-0.742 22.892-4.286 c0.404-0.22 0.813-0.44 1.229-0.661c0.058 1.2 0.1 2.4 0.2 3.557c0.576 10.5 1 18.165-4.32 38.9 c-1.165 4.547-10.349 34.31-8.998 42.316c0 0 1.1 2.1 1.6 2.677c0.081 3.1 0.7 6.1 1.2 9 c0.911 4.6 1.7 8.5 0.1 11.697c-0.935 1.87-1.767 3.353-2.436 4.544c-1.511 2.689-2.507 4.467-2.507 6.915h3.186 c0-1.616 0.702-2.866 2.1-5.354c0.686-1.221 1.54-2.74 2.509-4.678c2.074-4.148 1.146-8.811 0.164-13.746 c-0.359-1.8-0.723-3.638-0.952-5.498c0.658 0.3 1.4 0.4 2.3 0.549c0.185 2.6 0.7 5.2 1.2 7.7 c0.911 4.6 1.7 8.5 0.1 11.699c-0.935 1.869-1.767 3.352-2.435 4.543c-1.512 2.689-2.509 4.465-2.509 6.914h3.188 c0-1.615 0.701-2.864 2.099-5.354c0.687-1.221 1.539-2.741 2.508-4.679c2.076-4.147 1.147-8.811 0.165-13.745 c-0.452-2.273-0.913-4.607-1.102-6.973c1.298-0.069 5.861-0.607 6.246-0.664c-1.213 2.676-1.009 3.769-0.087 6.1 c0.386 1 0.9 2.2 1.4 4.184c1.052 4.2 0.1 8.544-0.82 12.369c-0.523 2.285-1.019 4.444-1.019 6.348h3.188 c0-1.543 0.456-3.531 0.938-5.636c0.911-3.968 2.042-8.905 0.806-13.854c-0.541-2.164-1.085-3.556-1.481-4.571 c-0.772-1.974-0.851-2.183 1.037-5.671c0.684-0.145 1.355-0.293 2.012-0.447c-1.812 3.561-1.689 4.607-0.646 7.3 c0.386 1 0.9 2.2 1.4 4.184c1.052 4.2 0.1 8.544-0.82 12.369c-0.523 2.285-1.019 4.444-1.019 6.348h3.187 c0-1.543 0.456-3.531 0.938-5.636c0.91-3.968 2.043-8.905 0.806-13.854c-0.541-2.164-1.085-3.556-1.481-4.571 c-0.811-2.072 1.365-7.04 1.871-7.171c2.15-0.559 4.137-1.073 6.012-1.422c-1.616 3.27-1.466 4.335-0.458 6.9 c0.386 1 0.9 2.2 1.4 4.186c1.054 4.2 0.1 8.543-0.818 12.367c-0.523 2.285-1.019 4.443-1.019 6.348h3.186 c0-1.543 0.456-3.531 0.938-5.635c0.91-3.968 2.042-8.905 0.805-13.855c-0.541-2.163-1.084-3.555-1.48-4.57 c-0.809-2.066-0.857-2.197 1.317-6.186c0.148-0.004 3.2 0.2 3.9 0.19c-1.94 3.759-1.838 4.792-0.77 7.5 c0.386 1 0.9 2.2 1.4 4.185c1.052 4.2 0.1 8.543-0.82 12.368c-0.523 2.285-1.019 4.444-1.019 6.348h3.188 c0-1.543 0.456-3.531 0.938-5.635c0.91-3.969 2.043-8.906 0.806-13.854c-0.542-2.164-1.084-3.557-1.482-4.572 c-0.811-2.072-0.859-2.196 1.335-6.219l-0.217-0.119c0.896-0.019 1.777-0.055 2.674-0.098c-2.056 4.004-1.938 5.133-0.792 8.1 c0.427 1.1 1 2.5 1.5 4.633c1.17 4.7 0.1 9.478-0.902 13.712c-0.575 2.51-1.119 4.883-1.119 6.963h3.186 c0-1.72 0.506-3.92 1.04-6.25c1-4.357 2.242-9.779 0.889-15.197c-0.595-2.376-1.193-3.904-1.629-5.021 c-0.919-2.351-0.974-2.493 1.481-6.991l-0.136-0.075c0.811-0.031 1.646-0.053 2.505-0.06c-2.066 3.951-1.98 4.971-0.892 7.8 c0.387 1 0.9 2.2 1.4 4.186c1.052 4.2 0.1 8.544-0.818 12.368c-0.524 2.286-1.02 4.444-1.02 6.349h3.188 c0-1.545 0.455-3.531 0.938-5.636c0.909-3.969 2.041-8.905 0.804-13.854c-0.541-2.164-1.133-3.537-1.48-4.571 c-1.146-3.396 1.358-6.532 1.684-6.515c-1.386 4.074-1.133 5.1 0.3 7.631c0.529 0.9 1.2 2.1 2 3.9 c1.671 4 1.3 8.4 1 12.352c-0.176 2.338-0.342 4.545-0.055 6.43l3.15-0.479c-0.231-1.526-0.078-3.561 0.082-5.714 c0.304-4.059 0.684-9.111-1.282-13.817c-0.859-2.059-1.607-3.353-2.151-4.297c-1.07-1.857-1.17-2.033 0.223-5.891 c1.317-0.014 2.541-0.135 3.659-0.325c-1.128 3.515-0.823 4.5 0.6 6.952c0.53 0.9 1.2 2.1 2 3.9 c1.671 4 1.3 8.4 1 12.351c-0.176 2.339-0.341 4.547-0.055 6.43l3.151-0.479c-0.232-1.525-0.079-3.559 0.081-5.713 c0.305-4.059 0.685-9.109-1.281-13.816C178.474 230 177.7 228.7 177.2 227.736z M75.459 214.2 c-6.914 0.416-15.68 1.732-18.452 2.289c-2.905 0.584-5.507 0.99-7.985 1.631c-2.162 0.559-6.887 1.627-9.344 1.8 c-2.459 0.21-17.226-1.687-23.685-1.687H6.186c-0.572-16.205-1.135-59.848-1.135-76.607c0-5.656-0.338-12.034-0.696-18.786 C3.66 109.8 2.9 94.9 4.4 81.543c1.205-10.231 6.48-26.187 13.13-39.703c7.647-15.543 15.668-25.156 22.004-26.375 c4.538-0.873 8.851-2.207 13.414-3.62c7.771-2.404 15.807-4.891 25.012-4.891c0.073 0 0.1 0 0.2 0 C67.078 8.7 60 10.3 54.2 17.042c-0.729 0.852-1.496 1.885-2.284 3.062c-5.136 5.676-8.114 12.681-10.545 19.5 c-1.105 3.121-2.052 6.28-2.835 9.438c-1.989 5.908-3.415 11.416-3.814 15.412c-0.775 7.7 1.3 16.6 3.6 24.2 c1.959 7.6 3 14.6 3 20.729c0 3.3 5.1 9.8 11.4 15.796c2.626 3.3 4.9 5.9 7.2 8.2 C61.678 149.7 70.5 194.4 75.5 214.188z M168.34 219.457c-1.549-0.12-3.082-0.178-4.688-0.178 c-2.03 0-6.872 1.518-14.395 0.18c-0.527-0.094-1.088-0.072-1.649-0.072c-3.513 0-7.193 0.954-11.088 2 c-3.393 0.881-10.708 3.459-16.98 2.807c-3.145-0.328-4.019-0.697-5.875-3.626c-0.331-5.494 1.845-13.774 5.721-28.529 c0.961-3.653 2.049-7.795 3.216-12.351c5.437-21.198 4.985-29.431 4.416-39.854c-0.05-0.922-0.103-1.863-0.151-2.836 c1.203-0.941 3.219-1.914 5.505-3.017c5.217-2.515 12.361-5.961 17.975-12.775c6.55-7.954 5.88-24.26 5.342-37.361 c-0.184-4.479-0.359-8.709-0.205-11.93c0.227-4.743-0.568-7.894-2.497-9.919c-2.166-2.271-5.429-3.383-8.416-2.584 c-7.204 1.929-12.758-1.762-16.648-3.528c-0.368-0.306-0.725-0.604-1.062-0.888c-2.711-2.276-3.858-3.199-5.07-3.199 c-0.6 0-2.229 1.89-6.301-0.043c-2.717-1.29-4.297 0.687-10.705-4.975c-1.479-1.306-3.46-2.396-5.547-3.739 c-4.978-3.2-10.504-5.036-15.159-5.036c-3.855 0-6.965 1.223-8.989 3.536c-1.053 1.204-2.521 2.582-4.078 4 c-4.571 4.285-10.259 9.617-11.222 15.868c-1.215 7.901-0.071 11.9 3.1 18.268c2.546 5.1 5.5 9.7 13.6 9.7 c1.449 0 11.859-1.396 14.646-1.396c4.876 0 15.2 2.6 21.9 4.994c4.492 1.6 6.347-4.067 8.328-9.216 c2.048-5.328 1.97-9.068 1.84-15.265c-0.062-2.957-0.137-6.57 0.006-11.259c0.597 0.3 1.2 0.6 1.8 0.8 c0.391 0.2 0.8 0.4 1.2 0.539l0.001 0.001c2.083 1.7 4.6 3.6 7.2 5.082c2.567 1.4 4.7 2 6.6 2 c1.909 0 3.396-0.61 4.838-1.2c1.09-0.447 2.211-0.907 3.612-1.142c1.576 1.7 1.5 2.5 1.1 5.9 c-0.459 4.054-1.227 10.8 0.3 24.808c2.578 23.736-12.101 31.375-25.054 38.116c-1.387 0.722-2.61 1.596-3.974 2.1 c-18.426 6.795-45.738 1.43-51.163-0.672c-11.063-4.284-18.902-15.91-21.431-19.197c-3.11-4.044-2.958-5.297-2.707-7.374 c0.208-1.718 0.468-3.858-0.606-7.614c-0.466-1.633-1.072-3.531-1.715-5.54c-0.604-1.886-1.256-3.927-1.896-6.067 c-0.18-0.7-0.365-1.402-0.562-2.111c-2.752-9.905-2.425-22.751 0.753-35.676C44.986 39.9 50.1 28.5 54.5 22 c6.382-6.969 15.703-12.781 31.477-11.882c14.035 0.8 23.3 2.6 37.1 6.953c12.833 4.1 23.9 9 28.1 12.4 c9.756 7.9 28.5 40.3 27.5 47.489c-1.234 8.634-2.375 45.401-1.203 58.864c1.183 13.6 1.8 67.6 1.8 81.4 C176.469 220.2 168.9 219.5 168.3 219.457z M120.006 68.523c0.126 6 0.2 9.309-1.629 14.1 c-2.205 5.73-3.066 7.173-5.354 7.173c-1.307 0.001-3.118-0.481-5.701-1.513c-6.179-2.473-10.866-3.481-16.178-3.481 c-2.966 0-6.254 0.317-10.345 1c-1.579 0.263-3.027 0.397-4.302 0.397c-6.306 0-8.341-3.126-10.726-7.896 c-2.846-5.69-3.975-8.957-2.836-16.356c0.795-5.165 6.038-10.079 10.251-14.029c1.615-1.515 3.141-2.945 4.297-4.266 c1.77-2.024 4.562-2.449 6.591-2.449c4.062 0 9 1.7 13.4 4.53c2.041 1.3 3.9 2.6 5.5 3.7 c4.678 3.2 8.1 5.6 11.8 5.586c0.369 0 0.742-0.023 1.107-0.068c0.099-0.013 0.205-0.018 0.319-0.018 c0.856 0 2.1 0.3 3.9 0.993c0.001 0 0 0 0 0.01C119.854 61.2 119.9 65.3 120 68.523z" class="style0"/></g></svg>