<svg xmlns="http://www.w3.org/2000/svg" xmlns:xlink="http://www.w3.org/1999/xlink" version="1.1" x="0px" y="0px" width="85.159px" height="105.681px" viewBox="0 0 85.159 105.681" enable-background="new 0 0 85.159 105.681" xml:space="preserve"><g><path fill="#333333" d="M40.908 15.214v2.316l-9.361 2.278c0.668 1.4 0.7 3.058-0.343 4.536l-0.038 0.053l10.432-2.54 c0.828 0.8 2.3 0.8 3.16-0.026l9.053 2.203c-0.373-0.849-0.676-1.693-0.926-2.663c-0.195-0.761-0.236-1.459-0.17-2.098 L45.424 17.5v-2.938c0-0.3-0.061-0.599-0.185-0.887c-0.692-2.036-3.059-2.645-3.096-2.651c-1.409-0.461-2.354-1.764-2.354-3.244 c0-1.882 1.53-3.412 3.412-3.412c1.742 0 3.2 1.3 3.4 3.016v1.583c0 1.2 1 2.2 2.2 2.2 c1.213 0 2.197-0.984 2.197-2.196V7.239c0-0.205-0.031-0.41-0.096-0.619C50.321 2.8 47 0 43.2 0 c-4.291 0-7.781 3.489-7.781 7.781C35.421 11.2 37.7 14.2 40.9 15.214z"/><path fill="#333333" d="M32.708 17.912c0 0 12.865-3.558 20.7 0.548l-0.822 1.643c0 0-13.139-3.422-19.024 0.137L32.708 17.912z"/><path fill="#333333" d="M34.524 19.209c0 0-0.329 9.5 1 14.138l-10.85 3.288c0 0-0.18-14.576 4.185-16.823 C33.208 17.6 31.9 17.2 34.5 19.209z"/><path fill="#333333" d="M34.524 19.209c0 0-0.329 9.5 1 14.138l-10.85 3.288c0 0-0.18-14.576 4.185-16.823 C33.208 17.6 31.9 17.2 34.5 19.209z"/><path fill="#333333" d="M50.635 19.209c0 0 0.3 9.534-0.986 14.138l10.85 3.288c0 0 0.18-14.576-4.184-16.823 C51.951 17.6 53.3 17.2 50.6 19.209z"/><path fill="#333333" d="M50.635 19.209c0 0 0.3 9.534-0.986 14.138l10.85 3.288c0 0 0.18-14.576-4.184-16.823 C51.951 17.6 53.3 17.2 50.6 19.209z"/><path fill="#333333" d="M78.276 37.889c-0.716-5.919-1.613-6.816-3.406-10.044c-0.955-1.717-7.787-3.887-13.979-5.545 c1.875 4.8 2 11.7 2 14.365l-0.039 3.137l-14.229-4.29l-1.381-2.198L43 43.896l-5.049-10.583l-1.147 2.1 l-14.462 4.412l-0.039-3.137c-0.032-2.633 0.09-9.531 1.965-14.365c-6.192 1.658-13.024 3.829-13.979 5.5 c-1.793 3.229-2.691 4.125-3.407 10.044C6.165 43.8 0 105.4 0 105.353l14.796 0.328l5.591-54.25v46.51h23.342h2.633h18.41 v-46.51l5.591 54.25l14.796-0.328C85.159 105.4 79 43.8 78.3 37.889z M43.172 92.57c-1.243 0-2.251-1.007-2.251-2.252 c0-1.242 1.008-2.25 2.251-2.25c1.244 0 2.3 1 2.3 2.25C45.424 91.6 44.4 92.6 43.2 92.57z M43.172 79.6 c-1.243 0-2.251-1.006-2.251-2.251c0-1.242 1.008-2.251 2.251-2.251c1.244 0 2.3 1 2.3 2.3 C45.424 78.6 44.4 79.6 43.2 79.578z M43.172 66.587c-1.243 0-2.251-1.008-2.251-2.252c0-1.242 1.008-2.252 2.251-2.252 c1.244 0 2.3 1 2.3 2.252C45.424 65.6 44.4 66.6 43.2 66.587z M43.172 53.596c-1.243 0-2.251-1.008-2.251-2.252 c0-1.242 1.008-2.251 2.251-2.251c1.244 0 2.3 1 2.3 2.251C45.424 52.6 44.4 53.6 43.2 53.596z"/></g></svg>