<svg xmlns="http://www.w3.org/2000/svg" xmlns:xlink="http://www.w3.org/1999/xlink" version="1.1" x="0px" y="0px" width="210px" height="79.4px" viewBox="37.5 43 210 79.4" enable-background="new 37.5 43 210 79.4" xml:space="preserve"><g><path fill="#333333" d="M242.1 103.9C242.1 103.9 242.1 103.9 242.1 103.9c2-22.3-4.5-49.4-9.6-53c-23.9 12.3-61 5.2-73.1-7.8 c-4.6 2.8-9.4 7-14.3 11.7l3.3 5c1.1 1.7 0.6 3.9-1 5c-1.7 1.1-3.9 0.6-5-1l-2.4-3.7c-2.3 2.4-4.7 4.8-6.9 7.2l3 4.5 c1.1 1.7 0.6 3.9-1 5c-1.7 1.1-3.9 0.6-5-1l-2.1-3.2c-4.9 4.8-9.2 8.7-12.7 10.3c-10.5 4.8-30.6 3.4-43.8 4.7 c-16.1 1.5-29 9.9-29.2 17.3c-0.3 7.4 19.1 18.1 80.5 13.9c14.2-1 38.8-11.7 68.2-16l0.7 19.1c0 0 11.7 0.7 14.2 0.7 c6.6 0 13.8-0.3 19.3-0.5c14-0.6 17.5-4.7 17.5-4.7S242.2 106.7 242.1 103.9z M202.2 111.2l-0.3-8.1c4.3-0.5 8.5-0.7 12.5-0.7 c5.7 0 11.2 0.5 16.5 1.4c0.1 1.8 0.1 3.9 0.2 6.3C226.3 110.8 203.2 111.3 202.2 111.2z"/></g></svg>