<?xml version="1.0" encoding="utf-8"?>
<!-- Generator: Adobe Illustrator 15.1.0, SVG Export Plug-In . SVG Version: 6.00 Build 0)  -->
<!DOCTYPE svg PUBLIC "-//W3C//DTD SVG 1.1//EN" "http://www.w3.org/Graphics/SVG/1.1/DTD/svg11.dtd">
<svg version="1.1" id="Layer_1" xmlns="http://www.w3.org/2000/svg" xmlns:xlink="http://www.w3.org/1999/xlink" x="0px" y="0px"
	 width="530.728px" height="414.844px" viewBox="0 0 530.728 414.844" enable-background="new 0 0 530.728 414.844"
	 xml:space="preserve">
<path fill="#333333" d="M457.741,4.315c30.246,12.973,82.949,74.969,71.348,128.337c-11.602,53.369-24.045,93.061-33.645,149.665
	c-9.386,55.33-12.16,100.656-13.924,122.979c-12.762,0-45.247,0-45.247,0V196.462c-68.45,35.967-148.503,153.946-170.547,193.391
	c-22.043,39.447-234.552,13.652-261.042-2.242c-11.602-6.961,0.836-63.312,10.442-67.291c11.394-4.719,98.616-38.363,114.858-44.164
	c84.693,53.367,158.276-60.498,201.872-109.018C389.52,102.96,457.741,4.315,457.741,4.315z"/>
</svg>
