<svg xmlns="http://www.w3.org/2000/svg" xmlns:xlink="http://www.w3.org/1999/xlink" version="1.1" x="0px" y="0px" width="184.019px" height="154.608px" viewBox="0 0 184.019 154.608" enable-background="new 0 0 184.019 154.608" xml:space="preserve"><g><path fill="#333333" d="M48.684 86.468c1.899 6.911-0.154 20.514-3.046 26.065c-3.2 6.143-2.176 15.869-2.944 18.6 c-0.767 2.688-4.35 11.518-2.432 15.101c0.77-6.655 2.176-12.542 3.584-14.845c1.408-2.304 1.664-11.39 2.944-15.229 c1.279-3.838 5.374-15.74 4.734-19.964C51.091 93.3 49.6 89 48.7 86.468z"/><path fill="#333333" d="M48.684 86.468c-0.201-0.734-0.447-1.396-0.742-1.961C47.942 84.5 48.2 85.3 48.7 86.468z"/><path fill="#333333" d="M127.14 84.496c0.435-1.186 0.742-1.961 0.742-1.961C127.587 83.1 127.3 83.8 127.1 84.496z"/><path fill="#333333" d="M130.187 110.562c-2.893-5.553-4.946-19.155-3.047-26.066c-0.917 2.494-2.407 6.821-2.841 9.7 c-0.64 4.2 3.5 16.1 4.7 19.964c1.279 3.8 1.5 12.9 2.9 15.229c1.408 2.3 2.8 8.2 3.6 14.8 c1.919-3.583-1.664-12.413-2.432-15.102C132.363 126.4 133.4 116.7 130.2 110.562z"/><path fill="#333333" d="M160.237 73.417c-0.287-2.312-1.237-5.056-1.861-6.411c-0.62-9.1-5.583-48.187-7.238-53.977 c-2.274-7.238-3.309-9.514-5.584-13.029C138.729 1 38 3.3 33.5 1.861c-1.292 4.251-2.041 7.671-2.688 11.8 c-0.413 4.963-3.929 48.186-4.343 51.701c-1.034 3.516-1.654 5.171-1.861 7.238c-1.861 3.31-7.238 20.061-10.134 27.7 c-2.895 7.652-11.994 32.676-14.062 36.812c-2.067 4.1 5 8.3 7.4 8.272s1.24 2.3 9.3 2.3 c8.066 0 11.8 5.4 19.2 4.55s23.989 0.2 21.3 1.447c-2.688 1.2 14.9 0.4 20.5 0.6 c5.583 0.2 19.853-0.62 27.3 0.207s13.839-2.799 16.751-1.654c5.791 2.3 22.749-0.827 28.54-0.207 c5.79 0.6 5.997-2.274 8.686-2.274s5.584-1.861 9.514-0.827c3.929 1 11.787-3.517 15.096-3.723 C184.019 134.8 166.6 81.1 160.2 73.417z M155.592 66.884c0 0 0.2 3.8 0.2 7.4 C155.461 72.5 155.2 71.5 155.6 66.884z M34.388 18.537c2.019 0.3 8.6 0.8 8.6 0.9 c0.306 0.3 6.7 5.2 9.8 5.782c-2.805-1.378-7.783-5.718-7.783-5.718c5.842 0.3 13.8 0.6 24.8 0.7 c3.51 3.2 7.5 6.9 14 8.833c-3.371-1.374-7.958-5.512-11.595-8.811c3.072 0 17.2 0 25.988-0.082 c2.559 2.3 5.5 4.7 10.2 6.139c-2.397-0.977-5.573-3.724-8.28-6.164c5.865-0.085 12.576-0.218 19.221-0.43 c3.924 3.5 8 7.9 15.6 10.19c-3.892-1.586-9.41-6.86-13.207-10.269c10.439-0.362 20.438-0.928 26.388-1.807 c1.72 9.8 4.8 33.7 5.9 45.083c-15.172 0.211-62.458 3.577-74.303 4.502c-1.01 0.079-2.222 0.119-3.603 0.1 c-13.109 0-36.839-3.436-45.345-5.163C31.407 54.8 34.4 18.5 34.4 18.537z M153.741 74.1 c-0.6-1.699-0.608-2.692-0.242-7.283c0.011 0 0 0 0 0C153.568 67.8 153.7 71 153.7 74.149z M151.333 74.1 c-0.155-3.271-0.214-6.771-0.214-6.771C151.73 71.7 151.8 72.5 151.3 74.135z M150.287 74.4 c-0.606-1.714-0.549-5.826-0.216-7.406C150.099 67.6 150.2 71.1 150.3 74.365z M147.62 74.5 c-0.103-3.273-0.104-6.773-0.104-6.773C148.057 72.1 148.1 73 147.6 74.548z M145.448 67.1 c0.717 1.3 0.1 4.1 0.1 7.434C144.966 72.8 145.6 69.3 145.4 67.142z M143.602 74.7 c-0.103-3.273-0.105-6.774-0.105-6.774C144.039 72.3 144.1 73.1 143.6 74.728z M142.379 67.3 c0 0 0.1 3.9 0.1 7.538C141.895 73.1 141.9 72.1 142.4 67.338z M140.832 75.4 c-0.103-3.272-0.104-6.773-0.104-6.773C141.269 73 141.3 73.9 140.8 75.442z M139.119 68 c0 0 0.1 3.9 0.1 7.538C138.634 73.8 138.7 72.8 139.1 67.995z M137.212 75.4 c-0.583-1.741-0.564-2.729-0.099-7.538C137.114 67.9 137.2 71.8 137.2 75.408z M134.324 75.7 c-0.583-1.741-0.563-2.729-0.099-7.538C134.225 68.1 134.3 72 134.3 75.688z M132.161 75.5 c-0.103-3.273-0.104-6.773-0.104-6.773C132.597 73 132.6 73.9 132.2 75.478z M131.11 75.7 c-0.583-1.74-0.564-2.729-0.099-7.538C131.011 68.2 131.1 72 131.1 75.691z M128.054 75.6 c-0.608-1.724-0.609-2.714-0.227-7.474C127.995 71.6 128 72.2 128.1 75.561z M125.646 75.5 c-0.155-3.271-0.214-6.771-0.214-6.771C126.043 73.1 126.1 74 125.6 75.546z M124.599 75.8 c-0.608-1.725-0.435-6.325-0.219-7.481C124.401 68.8 124.6 72.4 124.6 75.777z M121.933 76 c-0.103-3.272-0.104-6.773-0.104-6.773C122.371 73.5 122.4 74.4 121.9 75.959z M119.746 68.6 c0.006 0 0 0 0.017-0.001c0.019 0.7 0.1 4.1 0.1 7.4C119.281 74.3 119.3 73.3 119.7 68.587z M117.916 76.1 c-0.103-3.273-0.105-6.774-0.105-6.774C118.352 73.7 118.4 74.6 117.9 76.139z M116.54 68.8 c0.052-0.004 0.103-0.007 0.154-0.011c0.009 0.3 0.1 4 0.1 7.507c-0.582-1.736-0.564-2.726-0.102-7.506 C116.639 68.8 116.6 68.8 116.5 68.791z M113.506 76.869c-0.557-1.693-0.533-2.725-0.075-7.463 C113.431 69.4 113.7 76 113.5 76.869z M111.526 76.819c-0.583-1.741-0.564-2.729-0.099-7.538 C111.427 69.3 111.5 73.2 111.5 76.819z M108.637 77.099c-0.583-1.741-0.563-2.729-0.099-7.538 C108.539 69.6 108.6 73.5 108.6 77.099z M106.474 76.889c-0.103-3.273-0.104-6.773-0.104-6.773 C106.911 74.4 107 75.3 106.5 76.889z M105.325 69.565c0 0 0.1 3.9 0.1 7.5 C104.84 75.4 104.9 74.4 105.3 69.565z M103.214 77.396c-0.611-1.731-0.609-2.72-0.221-7.536 C102.994 69.9 103.2 73.8 103.2 77.396z M100.806 77.381c-0.155-3.271-0.214-6.771-0.214-6.771 C101.204 74.9 101.3 75.8 100.8 77.381z M99.759 77.611c-0.611-1.73-0.607-2.719-0.221-7.535 C99.539 70.1 99.7 74 99.8 77.611z M96.989 71.021c0.542 4.3 0.6 5.2 0.1 6.8 C96.991 74.5 97 71 97 71.021z M95.017 77.821c-0.582-1.741-0.563-2.729-0.099-7.538 C94.918 70.3 95 74.2 95 77.821z M93.076 77.974c-0.103-3.273-0.105-6.774-0.105-6.774 C93.512 75.5 93.6 76.4 93.1 77.974z M91.952 78.122c-0.583-1.741-0.564-2.729-0.099-7.538 C91.853 70.6 92 74.5 92 78.122z M90.297 78.435c-0.095-3.197-0.097-6.52-0.097-6.52 C90.712 76 90.8 76.6 90.3 78.435z M88.691 78.535c-0.37-1.958-0.543-2.711-0.099-7.294 C88.592 71.2 88.7 75 88.7 78.535z M86.686 78.654c-0.583-1.741-0.564-2.729-0.099-7.538 C86.587 71.1 86.7 75 86.7 78.654z M83.797 78.828c-0.011 0-0.022 0.001-0.033 0 c-0.547-1.678-0.521-2.724-0.065-7.435C83.699 71.4 83.8 75.2 83.8 78.828z M81.634 78.7 c-0.103-3.273-0.104-6.773-0.104-6.773C82.071 76.3 82.1 77.1 81.6 78.724z M80.583 78.9 c-0.583-1.74-0.564-2.729-0.099-7.537C80.485 71.4 80.6 75.3 80.6 78.938z M78.007 79 c0.182-3.27 0.483-6.758 0.483-6.758C78.657 76.6 78.6 77.5 78 79.011z M77.467 71.514c0 0-0.229 3.889-0.555 7.5 C76.482 77.2 76.6 76.3 77.5 71.514z M75.473 79.238c0.183-3.27 0.483-6.757 0.483-6.757 C76.123 76.8 76.1 77.7 75.5 79.238z M74.923 71.653c0 0-0.229 3.888-0.556 7.5 C73.938 77.4 74 76.4 74.9 71.653z M72.547 78.53c0.182-3.27 0.483-6.757 0.483-6.757 C73.197 76.1 73.2 77 72.5 78.53z M71.47 71.474c0 0-0.229 3.889-0.556 7.519C70.485 77.2 70.6 76.2 71.5 71.474z M69.538 71.719c0 0-0.229 3.889-0.556 7.518C68.552 77.5 68.7 76.5 69.5 71.719z M65.729 79.4 c-0.321-1.808-0.158-2.782 1.008-7.471C66.737 71.9 66.3 75.7 65.7 79.351z M64.51 72.1 c-0.097 4.341-0.186 5.225-0.892 6.716C63.999 75.6 64.5 72.1 64.5 72.11z M62.549 78.9 c-0.322-1.809-0.158-2.782 1.008-7.472C63.557 71.4 63.1 75.3 62.5 78.884z M60.44 72.2 c-0.167 4.339-0.27 5.222-0.999 6.701C59.873 75.6 60.4 72.2 60.4 72.18z M58.886 71.339c0 0-0.525 3.86-1.129 7.5 C57.465 77 57.6 76 58.9 71.339z M55.909 78.561c0.432-3.246 0.999-6.7 0.999-6.7 C56.741 76.2 56.6 77.1 55.9 78.561z M54.947 78.472c-0.292-1.812-0.112-2.784 1.13-7.454 C56.077 71 55.5 74.9 54.9 78.472z M54.044 71.707c-0.167 4.338-0.27 5.221-0.999 6.7 C53.477 75.2 54 71.7 54 71.707z M52.567 70.78c0 0-0.526 3.859-1.129 7.454C51.146 76.4 51.3 75.4 52.6 70.8 z M50.689 70.831c0 0-0.522 3.83-1.123 7.412c-0.041-0.005-0.083-0.01-0.124-0.015c0.037 0 0.1 0 0.1 0 C49.271 76.5 49.5 75.5 50.7 70.831z M45.483 70.33c-0.167 4.339-0.27 5.221-0.999 6.7 C44.916 73.8 45.5 70.3 45.5 70.33z M43.413 77.07c-0.292-1.812-0.112-2.784 1.129-7.453 C44.542 69.6 44 73.5 43.4 77.07z M46.584 77.59c-0.292-1.812-0.112-2.785 1.129-7.454 C47.713 70.1 47.2 74 46.6 77.59z M39.898 69.946c-0.542 4.309-0.722 5.179-1.576 6.6 C39.034 73.3 39.9 69.9 39.9 69.946z M37.439 75.59c-0.134-1.831 0.129-2.783 1.771-7.327 C39.21 68.3 38.4 72.1 37.4 75.59z M41.982 68.826c0 0-0.858 3.799-1.771 7.328C40.077 74.3 40.3 73.4 42 68.826z M40.859 76.724c0.712-3.197 1.576-6.589 1.576-6.589C41.893 74.4 41.7 75.3 40.9 76.724z M37.126 68.8 c-0.543 4.308-0.722 5.178-1.577 6.589C36.261 72.2 37.1 68.8 37.1 68.772z M33.963 75 c-0.134-1.831 0.129-2.784 1.771-7.328C35.735 67.7 34.9 71.5 34 75.049z M32.087 74.9 c-0.134-1.831 0.13-2.784 1.771-7.328C33.859 67.6 33 71.4 32.1 74.937z M30.956 66.658c0 0-0.859 3.8-1.771 7.3 C29.05 72.2 29.3 71.2 31 66.658z M27.84 65.866c0 0-0.858 3.8-1.771 7.328C25.936 71.4 26.2 70.4 27.8 65.866z M28.716 66.658c-0.542 4.308-0.722 5.178-1.576 6.589C27.852 70 28.7 66.7 28.7 66.658z M166.499 145.2 c-1.948-0.149-6.592 1.14-7.089 1.14c-2.224 0-3.684 0.946-4.649 1.572c-0.811 0.525-1.22 0.873-2.503 0.8 c-7.034-0.461-18.224 2.06-28.61 0.397c-0.913-0.146-1.798-0.503-2.867-0.503c-1.679 0-3.428 0.403-5.453 0.9 c-2.301 0.531-4.908 1.133-7.605 1.133c-0.631 0-7.509-0.716-11.916-0.5c-27.104 1.328-39.489-1.488-42.359-1.755 c-3.007-0.28-6.739-0.44-10.239-0.44c-2.004 0-4.896 0.056-7.288 0.321c-2.733 0.301-4.896-0.596-7.671-1.798 c-3.004-1.301-6.408-2.776-11.121-2.776c-3.921 0-4.707-0.554-5.177-0.884c-0.728-0.513-1.937-1.363-4.025-1.391 c-1.111-0.196-3.428-1.728-3.877-2.676c1.61-3.335 5.961-14.989 11.052-28.723c0.83-2.24 1.582-4.268 2.204-5.936 c-1.097 12.012-2.01 26.543-1.48 37.318c-0.113-10.611 4.106-37.755 6.719-51.988c1.408-4.065 2.973-8.557 4.138-11.598 c1.328 0.4 2.8 0.9 4.4 1.284c-0.765 3.538-1.756 10.498-1.836 17.392c0.678-4.58 2.146-12.855 2.911-17.13 c2.173 0.5 4.5 1 7 1.439c-0.936 8.557-5.359 44.925-2.404 54.103c-1.247-9.191 2.955-45.454 4.344-53.772 c1.325 0.2 2.7 0.4 4 0.604c-1.487 4.337-1.719 12.156-1.354 15.872c0.705-4.867 1.453-12.585 2.271-15.744 c2.957 0.4 6 0.7 8.9 0.976c-1.04 3.174-1.199 8.734-0.938 11.395c0.506-3.485 1.041-8.989 1.625-11.34 c1.833 0.1 3.6 0.3 5.4 0.362c-0.724 1.752-1.213 3.897-2.207 5.742c-1.193 2.217-2.899 4.265-3.583 5.8 c2.956-2.645 5.771-7.866 7.022-11.483c1.271 0.1 2.5 0.1 3.7 0.116c-0.634 4.582-2.147 17.864-1.911 25.7 c1.139-8.658 2.909-21.945 3.285-25.662c0.242 0 4.703-0.051 6.097-0.098c0.092 2.2 0.1 4 0.1 5.1 c0 1.296-0.648 8.286-0.519 11.523c0.129 3.2 0 8.805-0.259 14.76c-0.259 5.956-1.554 28.482-5.566 33.9 c5.437-6.861 8.156-28.613 7.249-38.971c-0.822-9.406-0.352-22.676-0.259-26.395c1.292-0.048 2.656-0.105 4.082-0.174 c0.349 3.5 2.1 17 3.3 25.78c0.239-7.909-1.316-21.426-1.936-25.847c3.837-0.193 8.046-0.447 12.359-0.726 c-0.099 2.664-0.132 6.376-0.479 10.204c-0.383 4.224-1.791 35.065-3.839 42.871c-2.048 7.8 2.3 18.2 4.6 5.4 c2.304-12.797 2.431-19.58 1.791-24.826c-0.578-4.744-1.614-28.947-1.814-33.642c1.525-0.099 3.061-0.2 4.599-0.304 c0.349 3.6 2.2 17.1 3.3 25.896c0.239-7.911-1.322-21.556-1.942-25.987c2.181-0.147 4.351-0.297 6.48-0.443 c-1.123 3.123-1.173 9.104-0.903 11.86c0.526-3.628 1.072-9.674 1.68-11.914c0.526-0.036 1.05-0.072 1.572-0.107 c0.888 2.8 1.7 11.7 2.5 16.893c0.383-3.896 0.206-12.734-1.472-16.961c3.828-0.263 7.499-0.512 10.696-0.709 c-0.521 3.4 1.3 9.9 0.8 14.476c-0.51 4.923-1.02 17.7 0.5 24.442c1.527 6.8 0.7 27.2 2.7 28.5 c0-7.3-1.188-29.704-2.037-34.287c-0.849-4.584 0.34-15.616 0-19.35c-0.305-3.347-1.657-11.055-1.204-13.849 c4.317-0.263 15.412-0.415 18.024-0.541c1.232 6.6 5.8 45.3 4.5 54.814c3.063-9.51-1.799-48.217-2.491-54.92 c0.56-0.032 1.125-0.066 1.698-0.104c0.582 3.4 1.2 6.8 1.5 9.223c-0.038-3.191-0.271-6.398-0.586-9.284 c0.759-0.053 1.526-0.11 2.297-0.171c0.675 3.8 2.4 13.5 3.2 18.523c-0.09-7.762-1.331-15.654-2.106-18.608 c4.497-0.377 9.041-0.896 12.703-1.548c0.856 1.5 1.9 3.7 3 6.226c2.622 14.5 6.6 40.3 6.5 50.6 c0.538-10.957-0.415-25.804-1.535-37.929c5.799 16.1 12 36.8 13.4 46 C178.917 143 172.7 145.7 166.5 145.209z"/></g></svg>