<svg xmlns="http://www.w3.org/2000/svg" xmlns:xlink="http://www.w3.org/1999/xlink" version="1.1" id="Layer_1" x="0px" y="0px" width="190.4px" height="250.5px" viewBox="0 0 190.4 250.5" enable-background="new 0 0 190.4 250.5" xml:space="preserve"><style>.style0{fill:	#333333;}.style1{fill:	#FFFFFF;}</style><g><path d="M190.3 88.6c-1.6-10.6-11.8-18.5-28.7-22.3l-59.6-14.5V45c9.6-3 16.2-11.9 16.2-22c0-12.7-10.3-23-23-23 C83.9 0 74.2 8.4 72.5 19.6c-0.2 0.6-0.3 1.2-0.3 1.8v5.1c0 3.6 2.9 6.5 6.5 6.5s6.5-2.9 6.5-6.5v-4.7c0.6-5.1 4.9-8.9 10-8.9 c5.6 0 10.1 4.5 10.1 10.1c0 4.4-2.8 8.2-6.8 9.5c-0.3 0.1-7.3 1.9-9.3 7.9c-0.4 0.8-0.6 1.7-0.6 2.6v8.7L28.8 66.3 C11.8 70.2 1.6 78.1 0 88.6l0 4.6c0 15 11.8 25.1 29.4 25.1H161c17.6 0 29.4-10.1 29.4-25.1V89L190.3 88.6z M177.4 93.3 c0 11-11.5 12.2-16.5 12.2h-4c0-0.3-0.1-0.6-0.1-0.9h-11.1c-0.1 0.4-0.2 0.8-0.2 1.3v3.3c0 0.1 0 0.2 0 0.3c-0.1 0-0.3 0-0.3-0.1 v-3.4c0-0.4-0.1-0.9-0.2-1.3h-11.1c-0.1 0.3-0.1 0.6-0.1 0.9H56.4c0-0.3-0.1-0.6-0.1-0.9H45.2c-0.1 0.4-0.2 0.8-0.2 1.3v3.3l0 0.1 c0 0.1-0.2 0.2-0.3 0.2c0-0.1 0-0.2 0-0.3v-3.3c0-0.4-0.1-0.9-0.2-1.3H33.5c-0.1 0.3-0.1 0.6-0.2 0.9h-4c-4.9 0-16.5-1.2-16.5-12.2 V90c1.2-4.5 8.1-8.7 18.7-11l59-14.4c2.5 2.4 6.9 2.5 9.4 0.1L158.8 79c10.6 2.4 17.5 6.5 18.7 11V93.3z" class="style0"/><polygon points="77.1,103.3 94.4,103.4 111.8,103.3 117,220.2 94.4,250.5 71.9,220.2" class="style0"/><polygon points="127.7,103.3 145,103.4 162.3,103.3 167.5,220.2 145,250.5 122.5,220.2" class="style0"/><polygon points="27.5,103.3 44.8,103.4 62.1,103.3 67.3,220.2 44.8,250.5 22.3,220.2" class="style0"/><g><polygon points="47.7,239.8 52.3,233.6 52.3,107.5 47.7,107.5" class="style1"/><polygon points="55,229.9 59.6,223.7 59.6,139.7 58.2,107.5 55,107.5" class="style1"/><polygon points="62.4,220 63.1,218.9 62.4,201.7" class="style1"/><polygon points="44.9,107.5 44.8,107.5 40.3,107.5 40.3,237.5 44.8,243.6 44.9,243.5" class="style1"/><polygon points="37.6,107.5 33,107.5 33,223.8 30.2,223.8 30.2,135.9 26.5,218.9 37.6,233.8" class="style1"/></g><g><polygon points="161.2,171.2 160.9,165 158,168" class="style1"/><polygon points="158,194.4 162.4,198.9 162,190.3" class="style1"/><polygon points="150.3,107.5 146.9,104.1 142.5,104.1 139.2,107.5 145,107.5" class="style1"/><polygon points="144.7,128.4 158,115.2 150.3,107.5 145,107.5 139.2,107.5 131.5,115.2" class="style1"/><polygon points="131.5,115.2 131.3,114.9 131.3,115.4" class="style1"/><polygon points="129.1,165.5 128.8,170.7 131.5,168" class="style1"/><polygon points="158.7,115.9 158.7,114.5 158,115.2" class="style1"/><polygon points="160,143.6 159.8,139.7 158,141.6" class="style1"/><polygon points="130.2,140.2 130.1,143.1 131.5,141.6" class="style1"/><rect x="135.4" y="158.7" transform="matrix(-0.707 0.7072 -0.7072 -0.707 365.8901 184.4284)" width="18.7" height="18.7" class="style1"/><rect x="135.4" y="132.2" transform="matrix(-0.7071 0.7071 -0.7071 -0.7071 347.2037 139.3371)" width="18.7" height="18.7" class="style1"/><polygon points="127.9,190.8 127.6,198.4 131.5,194.4" class="style1"/><polygon points="131.5,194.4 144.5,207.4 145,207.4 158,194.4 144.7,181.2" class="style1"/><polygon points="131.5,221.1 144.5,234.1 145,234.1 158,221.1 144.7,207.8" class="style1"/></g></g></svg>