<svg xmlns="http://www.w3.org/2000/svg" xmlns:xlink="http://www.w3.org/1999/xlink" version="1.1" x="0px" y="0px" width="64.357px" height="96.667px" viewBox="0 0 64.357 96.667" enable-background="new 0 0 64.357 96.667" xml:space="preserve"><g><path fill="#333333" d="M64.348 29.968c-0.53-3.573-3.985-6.25-9.71-7.535L34.373 17.5v-2.936c0-0.302-0.062-0.599-0.185-0.887 c-0.692-2.038-3.06-2.646-3.096-2.652c-1.409-0.461-2.355-1.764-2.355-3.243c0-1.882 1.531-3.413 3.413-3.413 c1.741 0 3.2 1.3 3.4 3.018v1.583c0 1.2 1 2.2 2.2 2.195c1.212 0 2.196-0.984 2.196-2.195v-1.73 c0-0.205-0.03-0.409-0.095-0.619C39.27 2.8 36 0 32.1 0c-4.292 0-7.781 3.491-7.781 7.782c0 3.4 2.2 6.4 5.5 7.4 v2.316L9.735 22.429c-5.743 1.289-9.195 3.966-9.726 7.539L0 31.539c0 5.1 4 8.5 9.9 8.497h44.486 c5.941 0 9.935-3.414 9.935-8.497v-1.438L64.348 29.968z M11.282 35.668H9.937c-1.675 0-5.566-0.402-5.566-4.129v-1.117 c0.388-1.537 2.74-2.927 6.338-3.735l19.839-4.83c0.828 0.8 2.3 0.8 3.16-0.024l19.959 4.9 c3.58 0.8 5.9 2.2 6.3 3.731v1.117c0 3.727-3.892 4.129-5.564 4.129h-1.348H11.282z"/><path fill="#333333" d="M56.284 51.422c0-4.298-2.074-8.102-5.262-10.45V20.537c0-0.771-0.625-1.396-1.396-1.396 c-0.77 0-1.395 0.624-1.395 1.396v21.297c-1.782 3.407-8.348 5.94-16.197 5.94c-7.848 0-14.414-2.533-16.197-5.939V20.537 c0-0.771-0.623-1.396-1.395-1.396c-0.771 0-1.395 0.624-1.395 1.396v20.436c-3.188 2.349-5.264 6.151-5.264 10.4 c0 3.7 1.6 7.1 4.1 9.444c1.766 2.6 4 7.7 2.6 15.865C14 77.7 12.5 92.7 12.5 93.8 c0 0-0.006 0.1 0 0.35c0.182 3.8 4.5 2.5 8.3 2.52c0.638 0 1.3 0.2 1.8 0c0.601 0.2 1.2 0 1.9 0h6.152 h2.744h6.153c0.649 0 1.3 0.2 1.9 0c0.589 0.2 1.2 0 1.8 0c3.77 0 8 0.8 8.154-2.924 c0.022-0.219 0.019-0.35 0.019-0.35c0-1.088-1.383-15.74-1.812-16.662c-1.464-8.2 0.813-13.308 2.58-15.865 C54.713 58.5 56.3 55.2 56.3 51.422z"/></g></svg>