<svg xmlns="http://www.w3.org/2000/svg" xmlns:xlink="http://www.w3.org/1999/xlink" version="1.1" x="0px" y="0px" width="176px" height="239.2px" viewBox="0 0 176 239.2" enable-background="new 0 0 176 239.2" xml:space="preserve"><path fill="#333333" d="M166.4 72.1c-1.3-8.6-9.6-15-23.4-18.1L94.2 42.1v-7.1c0-0.7-0.1-1.4-0.4-2.1c-1.7-4.9-7.4-6.4-7.5-6.4 c-3.4-1.1-5.7-4.2-5.7-7.8c0-4.5 3.7-8.2 8.2-8.2c4.2 0 7.7 3.1 8.2 7.3v3.8c0 2.9 2.4 5.3 5.3 5.3c2.9 0 5.3-2.4 5.3-5.3v-4.2 c0-0.5-0.1-1-0.2-1.5C106 6.8 98.1 0 88.9 0C78.5 0 70.1 8.4 70.1 18.7c0 8.2 5.4 15.5 13.2 17.9v5.6L34.9 54 c-13.8 3.1-22.1 9.6-23.4 18.2l0 3.8c0 12.2 9.6 20.5 23.9 20.5h107.1c14.3 0 23.9-8.2 23.9-20.5v-3.5L166.4 72.1z M38.6 85.9h-3.2 c-4 0-13.4-1-13.4-9.9v-2.7c0.9-3.7 6.6-7 15.3-9L85 52.6c2 2 5.6 1.9 7.6-0.1l48 11.7c8.6 1.9 14.3 5.3 15.2 9v2.7 c0 9-9.4 9.9-13.4 9.9h-3.2H38.6z"/><path fill="#333333" d="M88.5 239.2l57.9-0.9v-81.7l29.6-16.2c0 0-3.1-36.8-4.9-51.6c-1.8-14.8-4-17.1-8.5-25.1 c-3-5.4-29.3-12.6-46.4-16.8c0.1 0.8 0.1 1.6 0.1 2.4c0 15.7-12.6 28.4-28.2 28.7c-15.6-0.3-28.2-13-28.2-28.7 c0-0.8 0.1-1.6 0.1-2.4C42.8 51 16.5 58.2 13.5 63.7C9 71.7 6.7 74 4.9 88.8C3.1 103.6 0 140.4 0 140.4l28.7 16.2v81.7l58.8 0.9 H88.5z"/></svg>